<?xml version="1.0" encoding="utf-8"?>
<!-- Generator: Adobe Illustrator 24.1.2, SVG Export Plug-In . SVG Version: 6.00 Build 0)  -->
<svg version="1.1" id="Bold" xmlns="http://www.w3.org/2000/svg" xmlns:xlink="http://www.w3.org/1999/xlink" x="0px" y="0px"
	 viewBox="0 0 512 512" style="enable-background:new 0 0 512 512;" xml:space="preserve">
<style type="text/css">
	.st0{fill:#FFFFFF;}
</style>
<path class="st0" d="M188.7,269.9c-29.7,0-53.8,24.1-53.8,53.8v134.5c0,29.7,24.1,53.8,53.8,53.8s53.8-24.1,53.8-53.8V323.7
	C242.4,294,218.3,269.9,188.7,269.9L188.7,269.9z"/>
<path class="st0" d="M0.4,323.7c0,29.7,24.1,53.8,53.8,53.8s53.8-24.1,53.8-53.8v-53.8H54.3c0,0,0,0,0,0
	C24.5,269.8,0.4,294,0.4,323.7z"/>
<path class="st0" d="M188.7,0C188.7,0,188.7,0,188.7,0c-29.8,0-53.9,24.1-53.9,53.8s24.1,53.8,53.8,53.8h53.8c0-30.5,0-23.1,0-53.9
	C242.4,24,218.4,0,188.7,0z"/>
<path class="st0" d="M53.9,242.6h134.8c29.7,0,53.8-24.1,53.8-53.8s-24.1-53.8-53.8-53.8H53.9C24.1,134.9,0,159,0,188.7
	S24.1,242.6,53.9,242.6L53.9,242.6z"/>
<path class="st0" d="M457.7,134.9c-29.7,0-53.7,24-53.7,53.7v0.1v53.8h53.8c29.7,0,53.8-24.1,53.8-53.8S487.5,134.9,457.7,134.9
	C457.8,134.9,457.8,134.9,457.7,134.9z"/>
<path class="st0" d="M269.7,53.8v134.9c0,29.7,24.1,53.8,53.8,53.8c29.7,0,53.8-24.1,53.8-53.8V53.8c0-29.7-24.1-53.8-53.8-53.8
	C293.8,0,269.7,24.1,269.7,53.8L269.7,53.8z"/>
<path class="st0" d="M377.2,458.2c0-29.7-24.1-53.8-53.8-53.8h-53.8v53.8c0,29.7,24.1,53.7,53.8,53.7S377.2,487.9,377.2,458.2
	L377.2,458.2z"/>
<path class="st0" d="M458.2,269.8H323.4c-29.7,0-53.8,24.1-53.8,53.8s24.1,53.8,53.8,53.8h134.8c29.7,0,53.8-24.1,53.8-53.8
	S487.9,269.8,458.2,269.8z"/>
</svg>
