<?xml version="1.0" encoding="UTF-8" standalone="no"?>
<svg
   inkscape:version="1.3.2 (091e20e, 2023-11-25)"
   sodipodi:docname="01fig03-first-activity-gray.svg"
   id="svg819"
   version="1.1"
   viewBox="284 -131.98438 720 175.05009"
   height="203"
   width="720"
   xmlns:inkscape="http://www.inkscape.org/namespaces/inkscape"
   xmlns:sodipodi="http://sodipodi.sourceforge.net/DTD/sodipodi-0.dtd"
   xmlns="http://www.w3.org/2000/svg"
   xmlns:svg="http://www.w3.org/2000/svg"
   xmlns:rdf="http://www.w3.org/1999/02/22-rdf-syntax-ns#"
   xmlns:cc="http://creativecommons.org/ns#"
   xmlns:dc="http://purl.org/dc/elements/1.1/">
  <metadata
     id="metadata823">
    <rdf:RDF>
      <cc:Work
         rdf:about="">
        <dc:format>image/svg+xml</dc:format>
        <dc:type
           rdf:resource="http://purl.org/dc/dcmitype/StillImage" />
        <dc:title />
      </cc:Work>
    </rdf:RDF>
  </metadata>
  <sodipodi:namedview
     inkscape:current-layer="svg819"
     inkscape:window-maximized="0"
     inkscape:window-y="25"
     inkscape:window-x="0"
     inkscape:cy="120.17009"
     inkscape:cx="225.70017"
     inkscape:zoom="0.81967152"
     fit-margin-bottom="0"
     fit-margin-right="0"
     fit-margin-left="0"
     fit-margin-top="0"
     showgrid="false"
     id="namedview821"
     inkscape:window-height="620"
     inkscape:window-width="824"
     inkscape:pageshadow="2"
     inkscape:pageopacity="0"
     guidetolerance="10"
     gridtolerance="10"
     objecttolerance="10"
     borderopacity="1"
     bordercolor="#666666"
     pagecolor="#ffffff"
     inkscape:showpageshadow="2"
     inkscape:pagecheckerboard="0"
     inkscape:deskcolor="#d1d1d1" />
  <defs
     id="defs13">
    <marker
       orient="auto"
       markerHeight="10"
       markerWidth="10"
       refY="10"
       refX="11"
       viewBox="0 0 20 20"
       id="activity-black-black-4slfhhwe6hy0vzi47oxz93xz9">
      <path
         id="path10"
         style="fill:black;stroke:black;stroke-width:1px;stroke-linecap:round;stroke-dasharray:10000, 1"
         d="M 1,5 11,10 1,15 Z" />
    </marker>
    <marker
       id="activity-black-black-4slfhhwe6hy0vzi47oxz93xz9-9"
       viewBox="0 0 20 20"
       refX="11"
       refY="10"
       markerWidth="10"
       markerHeight="10"
       orient="auto">
      <path
         d="M 1,5 11,10 1,15 Z"
         style="fill:gray;stroke:gray;stroke-width:1px;stroke-linecap:round;stroke-dasharray:10000, 1"
         id="path1432" />
    </marker>
    <marker
       id="marker2259"
       viewBox="0 0 20 20"
       refX="11"
       refY="10"
       markerWidth="10"
       markerHeight="10"
       orient="auto">
      <path
         d="M 1,5 11,10 1,15 Z"
         style="fill:gray;stroke:gray;stroke-width:1px;stroke-linecap:round;stroke-dasharray:10000, 1"
         id="path2257" />
    </marker>
  </defs>
  <g
     transform="translate(-50.5,-188.45933)"
     id="g47"
     class="djs-group">
    <g
       id="g45"
       transform="translate(688,163)"
       style="display:block"
       data-element-id="shape_5616"
       class="djs-element djs-shape">
      <g
         id="g39"
         class="djs-visual">
        <svg
           id="svg33"
           version="1.1"
           height="75"
           width="75"
           viewBox="0 0 24 26"
           fill="gray">
          <path
             id="path29"
             d="m 12,5.9 c 1.16,0 2.1,0.94 2.1,2.1 0,1.16 -0.94,2.1 -2.1,2.1 C 10.84,10.1 9.9,9.16 9.9,8 9.9,6.84 10.84,5.9 12,5.9 m 0,9 c 2.97,0 6.1,1.46 6.1,2.1 v 1.1 H 5.9 V 17 c 0,-0.64 3.13,-2.1 6.1,-2.1 M 12,4 C 9.79,4 8,5.79 8,8 c 0,2.21 1.79,4 4,4 2.21,0 4,-1.79 4,-4 0,-2.21 -1.79,-4 -4,-4 z m 0,9 c -2.67,0 -8,1.34 -8,4 v 3 h 16 v -3 c 0,-2.66 -5.33,-4 -8,-4 z" />
          <path
             id="path31"
             fill="none"
             d="M 0,0 H 24 V 24 H 0 Z" />
        </svg>
        <text
           id="text37"
           style="font-weight:normal;font-size:12px;font-family:Helvetica, sans-serif;fill:#808080"
           class="djs-label"
           lineHeight="1.2"
           x="-6"><tspan
             id="tspan35"
             y="75"
             x="12.070312">cashier</tspan></text>
      </g>
      <rect
         id="rect41"
         style="fill:none;stroke:#ffffff;stroke-width:15px;stroke-opacity:0"
         height="75"
         width="75"
         y="0"
         x="0"
         class="djs-hit djs-hit-all" />
      <rect
         id="rect43"
         style="fill:none"
         class="djs-outline"
         height="87"
         width="87"
         y="-6"
         x="-6" />
    </g>
  </g>
  <g
     transform="translate(-50.5,-188.45933)"
     id="g103"
     class="djs-group">
    <g
       id="g101"
       style="display:block"
       data-element-id="connection_3579"
       class="djs-element djs-connection">
      <g
         id="g95"
         class="djs-visual">
        <polyline
           id="polyline89"
           style="fill:none;stroke:black;stroke-width:1.5px;stroke-linejoin:round;marker-end:url(#activity-black-black-4slfhhwe6hy0vzi47oxz93xz9)"
           points="576,88 670,88 701,163 " />
        <text
           id="text93"
           style="font-weight:normal;font-size:11px;font-family:Helvetica, sans-serif;fill:#000000"
           class="djs-label"
           hyphens="auto"
           overflowWrap="break-word"
           wordWrap="break-word"
           lineHeight="1.2"><tspan
             id="tspan91"
             y="103"
             x="611.90002">to</tspan></text>
      </g>
      <polyline
         id="polyline97"
         style="fill:none;stroke:#ffffff;stroke-width:15px;stroke-opacity:0"
         class="djs-hit djs-hit-stroke"
         points="576,88 670,88 701,163 " />
      <rect
         id="rect99"
         style="fill:none"
         class="djs-outline"
         height="87"
         width="137"
         y="82"
         x="570" />
    </g>
  </g>
  <g
     transform="translate(-50.5,-188.45933)"
     id="g531"
     class="djs-group">
    <g
       id="g529"
       transform="translate(495,50)"
       style="display:block"
       data-element-id="shape_1559"
       class="djs-element djs-shape">
      <g
         id="g523"
         class="djs-visual">
        <svg
           id="svg517"
           version="1.1"
           y="12.5"
           x="12.5"
           width="48.75"
           viewBox="0 0 24 26"
           height="48.75"
           fill="black">
          <path
             id="path513"
             fill="none"
             d="M 0,0 H 24 V 24 H 0 Z" />
          <path
             id="path515"
             d="M 20,2 H 4 C 2.9,2 2,2.9 2,4 v 18 l 4,-4 h 14 c 1.1,0 2,-0.9 2,-2 V 4 C 22,2.9 21.1,2 20,2 Z m 0,14 H 6 L 4,18 V 4 h 16 z" />
        </svg>
        <text
           id="text521"
           style="font-weight:normal;font-size:12px;font-family:Helvetica, sans-serif;fill:#000000"
           class="djs-label"
           lineHeight="1.2"
           x="-14"><tspan
             id="tspan519"
             y="74.75"
             x="9.4921885">show</tspan></text>
      </g>
      <rect
         id="rect525"
         style="fill:none;stroke:#ffffff;stroke-width:15px;stroke-opacity:0"
         height="75"
         width="75"
         y="0"
         x="0"
         class="djs-hit djs-hit-all" />
      <rect
         id="rect527"
         style="fill:none"
         class="djs-outline"
         height="87"
         width="87"
         y="-6"
         x="-6" />
    </g>
  </g>
  <polyline
     id="polyline611"
     style="fill:none;stroke:#000000;stroke-width:1.5px;stroke-linejoin:round;marker-end:url(#activity-black-black-4slfhhwe6hy0vzi47oxz93xz9)"
     points="380,163 420,88 495,88 "
     transform="translate(-50.5,-188.45933)" />
  <text
     id="text615"
     style="font-weight:normal;font-size:11px;font-family:Helvetica, sans-serif;fill:#000000"
     class="djs-label"
     hyphens="auto"
     overflowWrap="break-word"
     wordWrap="break-word"
     lineHeight="1.2"
     x="-50.5"
     y="-188.45934"><tspan
       id="tspan613"
       y="-85.459328"
       x="388.25">tells</tspan></text>
  <polyline
     id="polyline627"
     style="fill:none;stroke:#ffffff;stroke-width:15px;stroke-opacity:0"
     class="djs-hit djs-hit-stroke"
     points="380,163 420,88 495,88 "
     transform="translate(-50.5,-188.45933)" />
  <rect
     id="rect629"
     style="fill:none"
     class="djs-outline"
     height="87"
     width="127"
     y="-106.45933"
     x="323.5" />
  <g
     transform="rotate(-29.17872,72.902794,13.154125)"
     id="g713"
     class="djs-group">
    <g
       id="g711"
       style="display:block"
       data-element-id="connection_1124"
       class="djs-element djs-connection">
      <g
         id="g705"
         class="djs-visual">
        <polyline
           id="polyline703"
           style="stroke:gray;stroke-width:1.5px;stroke-linejoin:round;stroke-dasharray:5, 5"
           points="342,163 330,150 " />
      </g>
      <polyline
         id="polyline707"
         style="fill:none;stroke:#ffffff;stroke-width:15px;stroke-opacity:0"
         class="djs-hit djs-hit-stroke"
         points="342,163 330,150 " />
      <rect
         id="rect709"
         style="fill:none"
         class="djs-outline"
         height="25"
         width="24"
         y="144"
         x="324" />
    </g>
  </g>
  <g
     transform="translate(-50.5,-188.45933)"
     id="g757"
     class="djs-group">
    <g
       id="g755"
       transform="translate(342,163)"
       style="display:block"
       data-element-id="shape_5615"
       class="djs-element djs-shape">
      <g
         id="g749"
         class="djs-visual">
        <svg
           id="svg743"
           version="1.1"
           height="75"
           width="75"
           viewBox="0 0 24 26"
           fill="gray">
          <path
             id="path739"
             d="m 12,5.9 c 1.16,0 2.1,0.94 2.1,2.1 0,1.16 -0.94,2.1 -2.1,2.1 C 10.84,10.1 9.9,9.16 9.9,8 9.9,6.84 10.84,5.9 12,5.9 m 0,9 c 2.97,0 6.1,1.46 6.1,2.1 v 1.1 H 5.9 V 17 c 0,-0.64 3.13,-2.1 6.1,-2.1 M 12,4 C 9.79,4 8,5.79 8,8 c 0,2.21 1.79,4 4,4 2.21,0 4,-1.79 4,-4 0,-2.21 -1.79,-4 -4,-4 z m 0,9 c -2.67,0 -8,1.34 -8,4 v 3 h 16 v -3 c 0,-2.66 -5.33,-4 -8,-4 z" />
          <path
             id="path741"
             fill="none"
             d="M 0,0 H 24 V 24 H 0 Z" />
        </svg>
        <text
           id="text747"
           style="font-weight:normal;font-size:12px;font-family:Helvetica, sans-serif;fill:#808080"
           class="djs-label"
           lineHeight="1.2"><tspan
             id="tspan745"
             y="75"
             x="7.40625">moviegoer</tspan></text>
      </g>
      <rect
         id="rect751"
         style="fill:none;stroke:#ffffff;stroke-width:15px;stroke-opacity:0"
         height="75"
         width="75"
         y="0"
         x="0"
         class="djs-hit djs-hit-all" />
      <rect
         id="rect753"
         style="fill:none"
         class="djs-outline"
         height="87"
         width="87"
         y="-6"
         x="-6" />
    </g>
  </g>
  <g
     transform="translate(94.5,-99.459335)"
     id="g777"
     class="djs-group">
    <g
       id="g775"
       transform="translate(290,105)"
       style="display:block"
       data-element-id="shape_2857"
       class="djs-element djs-shape">
      <g
         id="g769"
         class="djs-visual">
        <rect
           id="rect759"
           style="fill:none;stroke:none;stroke-width:2px"
           ry="0"
           rx="0"
           height="42"
           width="100"
           y="0"
           x="0" />
        <path
           id="path761"
           style="fill:none;stroke:gray;stroke-width:2px"
           d="M 0,0 M 10,0 H 0 v 42 h 10" />
        <text
           id="text767"
           style="font-weight:normal;font-size:12px;font-family:Helvetica, sans-serif;fill:#808080"
           class="djs-label"
           lineHeight="1.2"><tspan
             id="tspan763"
             y="15.8"
             x="5">does not have a</tspan><tspan
             id="tspan765"
             y="30.200001"
             x="5">subscription</tspan></text>
      </g>
      <rect
         id="rect771"
         style="fill:none;stroke:#ffffff;stroke-width:15px;stroke-opacity:0"
         height="42"
         width="100"
         y="0"
         x="0"
         class="djs-hit djs-hit-all" />
      <rect
         id="rect773"
         style="fill:none"
         class="djs-outline"
         height="54"
         width="112"
         y="-6"
         x="-6" />
    </g>
  </g>
  <text
     lineHeight="1.2"
     position="absolute"
     class="djs-labelNumber"
     style="font-weight:normal;font-size:144.889px;font-family:Courier;fill:#ffffff;stroke-width:0.965928"
     id="text69"
     x="-23.32851"
     y="-176.78951"><tspan
       x="295.42789"
       y="-35.763954"
       id="tspan69"
       style="stroke-width:0.965928">.</tspan></text>
  <text
     lineHeight="1.2"
     position="absolute"
     class="djs-labelNumber"
     style="font-weight:normal;font-size:48.2964px;font-family:'Courier New';fill:#000000;stroke-width:0.965928"
     id="text70-7"
     x="-23.32851"
     y="-176.78951"><tspan
       x="324.40573"
       y="-32.866173"
       id="tspan70-9"
       style="stroke-width:0.965928">o</tspan></text>
  <text
     lineHeight="1.2"
     position="absolute"
     class="djs-labelNumber"
     style="font-weight:normal;font-size:10.6252px;font-family:Helvetica, sans-serif;fill:#000000;stroke-width:0.965928"
     id="text71"
     x="-23.32851"
     y="-176.78951"><tspan
       x="335.99689"
       y="-39.62767"
       id="tspan71"
       style="stroke-width:0.965928">1</tspan></text>
</svg>
