<?xml version="1.0" encoding="UTF-8" standalone="no"?>
<svg
   xmlns:dc="http://purl.org/dc/elements/1.1/"
   xmlns:cc="http://creativecommons.org/ns#"
   xmlns:rdf="http://www.w3.org/1999/02/22-rdf-syntax-ns#"
   xmlns:svg="http://www.w3.org/2000/svg"
   xmlns="http://www.w3.org/2000/svg"
   xmlns:sodipodi="http://sodipodi.sourceforge.net/DTD/sodipodi-0.dtd"
   xmlns:inkscape="http://www.inkscape.org/namespaces/inkscape"
   inkscape:version="1.0 (4035a4f, 2020-05-01)"
   sodipodi:docname="01.svg"
   id="svg819"
   version="1.1"
   viewBox="284 -131.98438 720 86.231572"
   height="100"
   width="720">
  <metadata
     id="metadata823">
    <rdf:RDF>
      <cc:Work
         rdf:about="">
        <dc:format>image/svg+xml</dc:format>
        <dc:type
           rdf:resource="http://purl.org/dc/dcmitype/StillImage" />
        <dc:title></dc:title>
      </cc:Work>
    </rdf:RDF>
  </metadata>
  <sodipodi:namedview
     inkscape:current-layer="svg819"
     inkscape:window-maximized="0"
     inkscape:window-y="23"
     inkscape:window-x="0"
     inkscape:cy="178.4932"
     inkscape:cx="430.78414"
     inkscape:zoom="0.62577526"
     fit-margin-bottom="0"
     fit-margin-right="0"
     fit-margin-left="0"
     fit-margin-top="0"
     showgrid="false"
     id="namedview821"
     inkscape:window-height="620"
     inkscape:window-width="821"
     inkscape:pageshadow="2"
     inkscape:pageopacity="0"
     guidetolerance="10"
     gridtolerance="10"
     objecttolerance="10"
     borderopacity="1"
     bordercolor="#666666"
     pagecolor="#ffffff" />
  <defs
     id="defs13">
    <marker
       orient="auto"
       markerHeight="10"
       markerWidth="10"
       refY="10"
       refX="11"
       viewBox="0 0 20 20"
       id="activity-black-black-4slfhhwe6hy0vzi47oxz93xz9">
      <path
         id="path10"
         style="fill:#000000;stroke:#000000;stroke-width:1px;stroke-linecap:round;stroke-dasharray:10000, 1"
         d="M 1,5 11,10 1,15 Z" />
    </marker>
    <marker
       id="activity-black-black-4slfhhwe6hy0vzi47oxz93xz9-9"
       viewBox="0 0 20 20"
       refX="11"
       refY="10"
       markerWidth="10"
       markerHeight="10"
       orient="auto">
      <path
         d="M 1,5 11,10 1,15 Z"
         style="fill:#000000;stroke:#000000;stroke-width:1px;stroke-linecap:round;stroke-dasharray:10000, 1"
         id="path1432" />
    </marker>
    <marker
       id="marker2259"
       viewBox="0 0 20 20"
       refX="11"
       refY="10"
       markerWidth="10"
       markerHeight="10"
       orient="auto">
      <path
         d="M 1,5 11,10 1,15 Z"
         style="fill:#000000;stroke:#000000;stroke-width:1px;stroke-linecap:round;stroke-dasharray:10000, 1"
         id="path2257" />
    </marker>
  </defs>
  <g
     transform="translate(-50.5,-292.45933)"
     id="g47"
     class="djs-group">
    <g
       id="g45"
       transform="translate(688,163)"
       style="display:block"
       data-element-id="shape_5616"
       class="djs-element djs-shape">
      <g
         id="g39"
         class="djs-visual">
        <svg
           id="svg33"
           version="1.1"
           height="75"
           width="75"
           viewBox="0 0 24 26"
           fill="#000000">
          <path
             id="path29"
             d="m 12,5.9 c 1.16,0 2.1,0.94 2.1,2.1 0,1.16 -0.94,2.1 -2.1,2.1 C 10.84,10.1 9.9,9.16 9.9,8 9.9,6.84 10.84,5.9 12,5.9 m 0,9 c 2.97,0 6.1,1.46 6.1,2.1 v 1.1 H 5.9 V 17 c 0,-0.64 3.13,-2.1 6.1,-2.1 M 12,4 C 9.79,4 8,5.79 8,8 c 0,2.21 1.79,4 4,4 2.21,0 4,-1.79 4,-4 0,-2.21 -1.79,-4 -4,-4 z m 0,9 c -2.67,0 -8,1.34 -8,4 v 3 h 16 v -3 c 0,-2.66 -5.33,-4 -8,-4 z" />
          <path
             id="path31"
             fill="none"
             d="M 0,0 H 24 V 24 H 0 Z" />
        </svg>
        <text
           id="text37"
           style="font-weight:normal;font-size:12px;font-family:Helvetica, sans-serif;fill:#000000"
           class="djs-label"
           lineHeight="1.2"><tspan
             id="tspan35"
             y="75"
             x="18.070312">cashier</tspan></text>
      </g>
      <rect
         id="rect41"
         style="fill:none;stroke:#ffffff;stroke-width:15px;stroke-opacity:0"
         height="75"
         width="75"
         y="0"
         x="0"
         class="djs-hit djs-hit-all" />
      <rect
         id="rect43"
         style="fill:none"
         class="djs-outline"
         height="87"
         width="87"
         y="-6"
         x="-6" />
    </g>
  </g>
</svg>
