<?xml version="1.0" encoding="UTF-8" standalone="no"?>
<svg
   xmlns:dc="http://purl.org/dc/elements/1.1/"
   xmlns:cc="http://creativecommons.org/ns#"
   xmlns:rdf="http://www.w3.org/1999/02/22-rdf-syntax-ns#"
   xmlns:svg="http://www.w3.org/2000/svg"
   xmlns="http://www.w3.org/2000/svg"
   xmlns:sodipodi="http://sodipodi.sourceforge.net/DTD/sodipodi-0.dtd"
   xmlns:inkscape="http://www.inkscape.org/namespaces/inkscape"
   width="180"
   height="210"
   viewBox="107 -37 180 188.61737"
   version="1.1"
   id="svg1278"
   sodipodi:docname="02fig11-buildingblocks-groups-optional.svg"
   inkscape:version="1.0.2 (e86c8708, 2021-01-15)">
  <metadata
     id="metadata1282">
    <rdf:RDF>
      <cc:Work
         rdf:about="">
        <dc:format>image/svg+xml</dc:format>
        <dc:type
           rdf:resource="http://purl.org/dc/dcmitype/StillImage" />
        <dc:title></dc:title>
      </cc:Work>
    </rdf:RDF>
  </metadata>
  <sodipodi:namedview
     pagecolor="#ffffff"
     bordercolor="#666666"
     borderopacity="1"
     objecttolerance="10"
     gridtolerance="10"
     guidetolerance="10"
     inkscape:pageopacity="0"
     inkscape:pageshadow="2"
     inkscape:window-width="957"
     inkscape:window-height="726"
     id="namedview1280"
     showgrid="false"
     fit-margin-top="0"
     fit-margin-left="0"
     fit-margin-right="0"
     fit-margin-bottom="0"
     inkscape:zoom="1.0610557"
     inkscape:cx="249.29868"
     inkscape:cy="190.64155"
     inkscape:window-x="303"
     inkscape:window-y="111"
     inkscape:window-maximized="0"
     inkscape:current-layer="svg1278"
     inkscape:document-rotation="0" />
  <defs
     id="defs836">
    <marker
       id="activity-black-black-3muvwakipbz747uosir9oxdan"
       viewBox="0 0 20 20"
       refX="11"
       refY="10"
       markerWidth="10"
       markerHeight="10"
       orient="auto">
      <path
         d="M 1,5 11,10 1,15 Z"
         style="fill:#000000;stroke:#000000;stroke-width:1px;stroke-linecap:round;stroke-dasharray:10000, 1"
         id="path833" />
    </marker>
  </defs>
  <g
     class="djs-group"
     id="g866"
     transform="matrix(0.5,0,0,0.5,-6.75,-67.03886)">
    <g
       class="djs-element djs-shape"
       data-element-id="shape_9224"
       style="display:block"
       transform="translate(337,49)"
       id="g864">
      <g
         class="djs-visual"
         id="g858">
        <rect
           x="0"
           y="0"
           width="226"
           height="321"
           rx="0"
           ry="0"
           style="fill:none;stroke:#000000;stroke-width:2px"
           id="rect852" />
        <text
           lineHeight="1.2"
           class="djs-label"
           style="font-weight:normal;font-size:12px;font-family:Helvetica, sans-serif;fill:#000000"
           id="text856"><tspan
             x="8"
             y="18.799999"
             id="tspan854">optional</tspan></text>
      </g>
      <rect
         class="djs-hit djs-hit-all"
         x="0"
         y="0"
         width="226"
         height="321"
         style="fill:none;stroke:#ffffff;stroke-width:15px;stroke-opacity:0"
         id="rect860" />
      <rect
         x="-6"
         y="-6"
         width="238"
         height="333"
         class="djs-outline"
         style="fill:none"
         id="rect862" />
    </g>
  </g>
  <g
     class="djs-group"
     id="g886"
     transform="matrix(0.5,0,0,0.5,-6.75,-31.03886)">
    <g
       class="djs-element djs-shape"
       data-element-id="shape_3084"
       style="display:block"
       transform="translate(559,471)"
       id="g884">
      <g
         class="djs-visual"
         id="g878">
        <svg
           fill="#000000"
           width="48.75"
           height="48.75"
           viewBox="0 0 24 28"
           x="12.5"
           y="12.5"
           version="1.1"
           id="svg872">
          <path
             fill="none"
             d="M 0,0 H 24 V 24 H 0 Z"
             id="path868" />
          <path
             d="M 19.5,3.5 18,2 16.5,3.5 15,2 13.5,3.5 12,2 10.5,3.5 9,2 7.5,3.5 6,2 4.5,3.5 3,2 V 22 L 4.5,20.5 6,22 7.5,20.5 9,22 10.5,20.5 12,22 13.5,20.5 15,22 16.5,20.5 18,22 19.5,20.5 21,22 V 2 Z M 19,19.09 H 5 V 4.91 H 19 Z M 6,15 h 12 v 2 H 6 Z m 0,-4 h 12 v 2 H 6 Z M 6,7 H 18 V 9 H 6 Z"
             id="path870" />
        </svg>
        <text
           lineHeight="1.2"
           class="djs-label"
           style="font-weight:normal;font-size:12px;font-family:Helvetica, sans-serif;fill:#000000"
           id="text876"><tspan
             x="23.492188"
             y="74.75"
             id="tspan874">ticket</tspan></text>
      </g>
      <rect
         class="djs-hit djs-hit-all"
         x="0"
         y="0"
         width="75"
         height="75"
         style="fill:none;stroke:#ffffff;stroke-width:15px;stroke-opacity:0"
         id="rect880" />
      <rect
         x="-6"
         y="-6"
         width="87"
         height="87"
         class="djs-outline"
         style="fill:none"
         id="rect882" />
    </g>
  </g>
  <g
     class="djs-group"
     id="g906"
     transform="matrix(0.5,0,0,0.5,-6.75,-31.03886)">
    <g
       class="djs-element djs-shape"
       data-element-id="shape_5742"
       style="display:block"
       transform="translate(120,570)"
       id="g904">
      <g
         class="djs-visual"
         id="g898">
        <svg
           fill="#000000"
           width="48.75"
           height="48.75"
           viewBox="0 0 24 26"
           x="12.5"
           y="12.5"
           version="1.1"
           id="svg892">
          <path
             fill="none"
             d="M 0,0 H 24 V 24 H 0 Z"
             id="path888" />
          <path
             d="M 18,3 V 5 H 16 V 3 H 8 V 5 H 6 V 3 H 4 v 18 h 2 v -2 h 2 v 2 h 8 v -2 h 2 v 2 h 2 V 3 Z M 8,17 H 6 V 15 H 8 Z M 8,13 H 6 V 11 H 8 Z M 8,9 H 6 V 7 h 2 z m 6,10 H 10 V 5 h 4 z m 4,-2 h -2 v -2 h 2 z m 0,-4 h -2 v -2 h 2 z M 18,9 H 16 V 7 h 2 z"
             id="path890" />
        </svg>
        <text
           lineHeight="1.2"
           class="djs-label"
           style="font-weight:normal;font-size:12px;font-family:Helvetica, sans-serif;fill:#000000"
           id="text896"><tspan
             x="21.492188"
             y="74.75"
             id="tspan894">movie</tspan></text>
      </g>
      <rect
         class="djs-hit djs-hit-all"
         x="0"
         y="0"
         width="75"
         height="75"
         style="fill:none;stroke:#ffffff;stroke-width:15px;stroke-opacity:0"
         id="rect900" />
      <rect
         x="-6"
         y="-6"
         width="87"
         height="87"
         class="djs-outline"
         style="fill:none"
         id="rect902" />
    </g>
  </g>
  <g
     class="djs-group"
     id="g926"
     transform="matrix(0.5,0,0,0.5,-38.75,-67.03886)">
    <g
       class="djs-element djs-shape"
       data-element-id="shape_7937"
       style="display:block"
       transform="translate(138,217)"
       id="g924">
      <g
         class="djs-visual"
         id="g918">
        <svg
           fill="#000000"
           width="48.75"
           height="48.75"
           viewBox="0 0 24 28"
           x="12.5"
           y="12.5"
           version="1.1"
           id="svg912">
          <path
             fill="none"
             d="M 0,0 H 24 V 24 H 0 Z"
             id="path908" />
          <path
             d="M 19.5,3.5 18,2 16.5,3.5 15,2 13.5,3.5 12,2 10.5,3.5 9,2 7.5,3.5 6,2 4.5,3.5 3,2 V 22 L 4.5,20.5 6,22 7.5,20.5 9,22 10.5,20.5 12,22 13.5,20.5 15,22 16.5,20.5 18,22 19.5,20.5 21,22 V 2 Z M 19,19.09 H 5 V 4.91 H 19 Z M 6,15 h 12 v 2 H 6 Z m 0,-4 h 12 v 2 H 6 Z M 6,7 H 18 V 9 H 6 Z"
             id="path910" />
        </svg>
        <text
           lineHeight="1.2"
           class="djs-label"
           style="font-weight:normal;font-size:12px;font-family:Helvetica, sans-serif;fill:#000000"
           id="text916"><tspan
             x="23.492188"
             y="74.75"
             id="tspan914">ticket</tspan></text>
      </g>
      <rect
         class="djs-hit djs-hit-all"
         x="0"
         y="0"
         width="75"
         height="75"
         style="fill:none;stroke:#ffffff;stroke-width:15px;stroke-opacity:0"
         id="rect920" />
      <rect
         x="-6"
         y="-6"
         width="87"
         height="87"
         class="djs-outline"
         style="fill:none"
         id="rect922" />
    </g>
  </g>
  <g
     class="djs-group"
     id="g946"
     transform="matrix(0.5,0,0,0.5,-6.75,-31.03886)">
    <g
       class="djs-element djs-shape"
       data-element-id="shape_9250"
       style="display:block"
       transform="translate(490,770)"
       id="g944">
      <g
         class="djs-visual"
         id="g938">
        <svg
           fill="#000000"
           viewBox="0 0 24 26"
           width="75"
           height="75"
           version="1.1"
           id="svg932">
          <path
             d="m 12,5.9 c 1.16,0 2.1,0.94 2.1,2.1 0,1.16 -0.94,2.1 -2.1,2.1 C 10.84,10.1 9.9,9.16 9.9,8 9.9,6.84 10.84,5.9 12,5.9 m 0,9 c 2.97,0 6.1,1.46 6.1,2.1 v 1.1 H 5.9 V 17 c 0,-0.64 3.13,-2.1 6.1,-2.1 M 12,4 C 9.79,4 8,5.79 8,8 c 0,2.21 1.79,4 4,4 2.21,0 4,-1.79 4,-4 0,-2.21 -1.79,-4 -4,-4 z m 0,9 c -2.67,0 -8,1.34 -8,4 v 3 h 16 v -3 c 0,-2.66 -5.33,-4 -8,-4 z"
             id="path928" />
          <path
             d="M 0,0 H 24 V 24 H 0 Z"
             fill="none"
             id="path930" />
        </svg>
        <text
           lineHeight="1.2"
           class="djs-label"
           style="font-weight:normal;font-size:12px;font-family:Helvetica, sans-serif;fill:#000000"
           id="text936"><tspan
             x="22.40625"
             y="75"
             id="tspan934">usher</tspan></text>
      </g>
      <rect
         class="djs-hit djs-hit-all"
         x="0"
         y="0"
         width="75"
         height="75"
         style="fill:none;stroke:#ffffff;stroke-width:15px;stroke-opacity:0"
         id="rect940" />
      <rect
         x="-6"
         y="-6"
         width="87"
         height="87"
         class="djs-outline"
         style="fill:none"
         id="rect942" />
    </g>
  </g>
  <g
     class="djs-group"
     id="g966"
     transform="matrix(0.5,0,0,0.5,-6.75,-31.03886)">
    <g
       class="djs-element djs-shape"
       data-element-id="shape_7670"
       style="display:block"
       transform="translate(115,770)"
       id="g964">
      <g
         class="djs-visual"
         id="g958">
        <svg
           fill="#000000"
           viewBox="0 0 24 26"
           width="75"
           height="75"
           version="1.1"
           id="svg952">
          <path
             d="m 12,5.9 c 1.16,0 2.1,0.94 2.1,2.1 0,1.16 -0.94,2.1 -2.1,2.1 C 10.84,10.1 9.9,9.16 9.9,8 9.9,6.84 10.84,5.9 12,5.9 m 0,9 c 2.97,0 6.1,1.46 6.1,2.1 v 1.1 H 5.9 V 17 c 0,-0.64 3.13,-2.1 6.1,-2.1 M 12,4 C 9.79,4 8,5.79 8,8 c 0,2.21 1.79,4 4,4 2.21,0 4,-1.79 4,-4 0,-2.21 -1.79,-4 -4,-4 z m 0,9 c -2.67,0 -8,1.34 -8,4 v 3 h 16 v -3 c 0,-2.66 -5.33,-4 -8,-4 z"
             id="path948" />
          <path
             d="M 0,0 H 24 V 24 H 0 Z"
             fill="none"
             id="path950" />
        </svg>
        <text
           lineHeight="1.2"
           class="djs-label"
           style="font-weight:normal;font-size:12px;font-family:Helvetica, sans-serif;fill:#000000"
           id="text956"><tspan
             x="5.484375"
             y="75"
             id="tspan954">projectionist</tspan></text>
      </g>
      <rect
         class="djs-hit djs-hit-all"
         x="0"
         y="0"
         width="75"
         height="75"
         style="fill:none;stroke:#ffffff;stroke-width:15px;stroke-opacity:0"
         id="rect960" />
      <rect
         x="-6"
         y="-6"
         width="87"
         height="87"
         class="djs-outline"
         style="fill:none"
         id="rect962" />
    </g>
  </g>
  <g
     class="djs-group"
     id="g986"
     transform="matrix(0.5,0,0,0.5,-38.75,-67.03886)">
    <g
       class="djs-element djs-shape"
       data-element-id="shape_9942"
       style="display:block"
       transform="translate(139,50)"
       id="g984">
      <g
         class="djs-visual"
         id="g978">
        <svg
           fill="#000000"
           viewBox="0 0 24 26"
           width="75"
           height="75"
           version="1.1"
           id="svg972">
          <path
             d="m 12,5.9 c 1.16,0 2.1,0.94 2.1,2.1 0,1.16 -0.94,2.1 -2.1,2.1 C 10.84,10.1 9.9,9.16 9.9,8 9.9,6.84 10.84,5.9 12,5.9 m 0,9 c 2.97,0 6.1,1.46 6.1,2.1 v 1.1 H 5.9 V 17 c 0,-0.64 3.13,-2.1 6.1,-2.1 M 12,4 C 9.79,4 8,5.79 8,8 c 0,2.21 1.79,4 4,4 2.21,0 4,-1.79 4,-4 0,-2.21 -1.79,-4 -4,-4 z m 0,9 c -2.67,0 -8,1.34 -8,4 v 3 h 16 v -3 c 0,-2.66 -5.33,-4 -8,-4 z"
             id="path968" />
          <path
             d="M 0,0 H 24 V 24 H 0 Z"
             fill="none"
             id="path970" />
        </svg>
        <text
           lineHeight="1.2"
           class="djs-label"
           style="font-weight:normal;font-size:12px;font-family:Helvetica, sans-serif;fill:#000000"
           id="text976"><tspan
             x="18.070312"
             y="75"
             id="tspan974">cashier</tspan></text>
      </g>
      <rect
         class="djs-hit djs-hit-all"
         x="0"
         y="0"
         width="75"
         height="75"
         style="fill:none;stroke:#ffffff;stroke-width:15px;stroke-opacity:0"
         id="rect980" />
      <rect
         x="-6"
         y="-6"
         width="87"
         height="87"
         class="djs-outline"
         style="fill:none"
         id="rect982" />
    </g>
  </g>
  <g
     class="djs-group"
     id="g1006"
     transform="matrix(0.5,0,0,0.5,-6.75,-67.03886)">
    <g
       class="djs-element djs-shape"
       data-element-id="shape_6549"
       style="display:block"
       transform="translate(235,374)"
       id="g1004">
      <g
         class="djs-visual"
         id="g998">
        <svg
           fill="#000000"
           viewBox="0 0 24 26"
           width="75"
           height="75"
           version="1.1"
           id="svg992">
          <path
             d="m 12,5.9 c 1.16,0 2.1,0.94 2.1,2.1 0,1.16 -0.94,2.1 -2.1,2.1 C 10.84,10.1 9.9,9.16 9.9,8 9.9,6.84 10.84,5.9 12,5.9 m 0,9 c 2.97,0 6.1,1.46 6.1,2.1 v 1.1 H 5.9 V 17 c 0,-0.64 3.13,-2.1 6.1,-2.1 M 12,4 C 9.79,4 8,5.79 8,8 c 0,2.21 1.79,4 4,4 2.21,0 4,-1.79 4,-4 0,-2.21 -1.79,-4 -4,-4 z m 0,9 c -2.67,0 -8,1.34 -8,4 v 3 h 16 v -3 c 0,-2.66 -5.33,-4 -8,-4 z"
             id="path988" />
          <path
             d="M 0,0 H 24 V 24 H 0 Z"
             fill="none"
             id="path990" />
        </svg>
        <text
           lineHeight="1.2"
           class="djs-label"
           style="font-weight:normal;font-size:12px;font-family:Helvetica, sans-serif;fill:#000000"
           id="text996"><tspan
             x="7.40625"
             y="75"
             id="tspan994">moviegoer</tspan></text>
      </g>
      <rect
         class="djs-hit djs-hit-all"
         x="0"
         y="0"
         width="75"
         height="75"
         style="fill:none;stroke:#ffffff;stroke-width:15px;stroke-opacity:0"
         id="rect1000" />
      <rect
         x="-6"
         y="-6"
         width="87"
         height="87"
         class="djs-outline"
         style="fill:none"
         id="rect1002" />
    </g>
  </g>
  <g
     class="djs-group"
     id="g1026"
     transform="matrix(0.5,0,0,0.5,-6.75,-31.03886)">
    <g
       class="djs-element djs-shape"
       data-element-id="shape_0649"
       style="display:block"
       transform="translate(476,557)"
       id="g1024">
      <g
         class="djs-visual"
         id="g1018">
        <svg
           fill="#000000"
           width="48.75"
           height="48.75"
           viewBox="0 0 24 28"
           x="12.5"
           y="12.5"
           version="1.1"
           id="svg1012">
          <path
             fill="none"
             d="M 0,0 H 24 V 24 H 0 Z"
             id="path1008" />
          <path
             d="M 19.5,3.5 18,2 16.5,3.5 15,2 13.5,3.5 12,2 10.5,3.5 9,2 7.5,3.5 6,2 4.5,3.5 3,2 V 22 L 4.5,20.5 6,22 7.5,20.5 9,22 10.5,20.5 12,22 13.5,20.5 15,22 16.5,20.5 18,22 19.5,20.5 21,22 V 2 Z M 19,19.09 H 5 V 4.91 H 19 Z M 6,15 h 12 v 2 H 6 Z m 0,-4 h 12 v 2 H 6 Z M 6,7 H 18 V 9 H 6 Z"
             id="path1010" />
        </svg>
        <text
           lineHeight="1.2"
           class="djs-label"
           style="font-weight:normal;font-size:12px;font-family:Helvetica, sans-serif;fill:#000000"
           id="text1016"><tspan
             x="23.492188"
             y="74.75"
             id="tspan1014">ticket</tspan></text>
      </g>
      <rect
         class="djs-hit djs-hit-all"
         x="0"
         y="0"
         width="75"
         height="75"
         style="fill:none;stroke:#ffffff;stroke-width:15px;stroke-opacity:0"
         id="rect1020" />
      <rect
         x="-6"
         y="-6"
         width="87"
         height="87"
         class="djs-outline"
         style="fill:none"
         id="rect1022" />
    </g>
  </g>
  <g
     class="djs-group"
     id="g1046"
     transform="matrix(0.5,0,0,0.5,-6.75,-67.03886)">
    <g
       class="djs-element djs-shape"
       data-element-id="shape_8945"
       style="display:block"
       transform="translate(445,217)"
       id="g1044">
      <g
         class="djs-visual"
         id="g1038">
        <svg
           viewBox="0 0 24 24"
           width="48.75"
           height="48.75"
           x="12.5"
           y="12.5"
           version="1.1"
           id="svg1030">
          <path
             d="M 0,0 H 24 V 24 H 0 Z"
             fill="none"
             id="path103" />
          <path
             d="m 1,21.98 c 0,0.56 0.45,1.01 1.01,1.01 H 15 c 0.56,0 1.01,-0.45 1.01,-1.01 V 21 H 1 Z M 8.5,8.99 C 4.75,8.99 1,11 1,15 H 16 C 16,11 12.25,8.99 8.5,8.99 Z M 3.62,13 c 1.11,-1.55 3.47,-2.01 4.88,-2.01 1.41,0 3.77,0.46 4.88,2.01 z M 1,17 h 15 v 2 H 1 Z M 18,5 V 1 h -2 v 4 h -5 l 0.23,2 h 9.56 l -1.4,14 H 18 v 2 h 1.72 c 0.84,0 1.53,-0.65 1.63,-1.47 L 23,5 Z"
             id="path105" />
        </svg>
        <text
           lineHeight="1.2"
           class="djs-label"
           style="font-weight:normal;font-size:12px;font-family:Helvetica, sans-serif;fill:#000000"
           id="text1036"><tspan
             x="7.1484375"
             y="74.75"
             id="tspan1032">snacks and</tspan><tspan
             x="21.492188"
             y="88.75"
             id="tspan1034">drinks</tspan></text>
      </g>
      <rect
         class="djs-hit djs-hit-all"
         x="0"
         y="0"
         width="75"
         height="75"
         style="fill:none;stroke:#ffffff;stroke-width:15px;stroke-opacity:0"
         id="rect1040" />
      <rect
         x="-6"
         y="-6"
         width="87"
         height="87"
         class="djs-outline"
         style="fill:none"
         id="rect1042" />
    </g>
  </g>
  <g
     class="djs-group"
     id="g1068"
     transform="matrix(0.5,0,0,0.5,-6.75,-67.03886)">
    <g
       class="djs-element djs-shape"
       data-element-id="shape_4967"
       style="display:block"
       transform="translate(445,50)"
       id="g1066">
      <g
         class="djs-visual"
         id="g1060">
        <svg
           fill="#000000"
           viewBox="0 0 24 26"
           width="75"
           height="75"
           version="1.1"
           id="svg1052">
          <path
             d="m 12,5.9 c 1.16,0 2.1,0.94 2.1,2.1 0,1.16 -0.94,2.1 -2.1,2.1 C 10.84,10.1 9.9,9.16 9.9,8 9.9,6.84 10.84,5.9 12,5.9 m 0,9 c 2.97,0 6.1,1.46 6.1,2.1 v 1.1 H 5.9 V 17 c 0,-0.64 3.13,-2.1 6.1,-2.1 M 12,4 C 9.79,4 8,5.79 8,8 c 0,2.21 1.79,4 4,4 2.21,0 4,-1.79 4,-4 0,-2.21 -1.79,-4 -4,-4 z m 0,9 c -2.67,0 -8,1.34 -8,4 v 3 h 16 v -3 c 0,-2.66 -5.33,-4 -8,-4 z"
             id="path1048" />
          <path
             d="M 0,0 H 24 V 24 H 0 Z"
             fill="none"
             id="path1050" />
        </svg>
        <text
           lineHeight="1.2"
           class="djs-label"
           style="font-weight:normal;font-size:12px;font-family:Helvetica, sans-serif;fill:#000000"
           id="text1058"><tspan
             x="7.4765625"
             y="75"
             id="tspan1054">concession</tspan><tspan
             x="22.820312"
             y="89"
             id="tspan1056">stand</tspan></text>
      </g>
      <rect
         class="djs-hit djs-hit-all"
         x="0"
         y="0"
         width="75"
         height="75"
         style="fill:none;stroke:#ffffff;stroke-width:15px;stroke-opacity:0"
         id="rect1062" />
      <rect
         x="-6"
         y="-6"
         width="87"
         height="87"
         class="djs-outline"
         style="fill:none"
         id="rect1064" />
    </g>
  </g>
  <g
     class="djs-group"
     id="g1092"
     transform="matrix(0.5,0,0,0.5,-38.75,-67.03886)">
    <g
       class="djs-element djs-connection"
       data-element-id="connection_8224"
       style="display:block"
       id="g1090">
      <g
         class="djs-visual"
         id="g1084">
        <polyline
           points="262,374 197,299 "
           style="fill:none;stroke:#000000;stroke-width:1.5px;stroke-linejoin:round;marker-end:url(#activity-black-black-3muvwakipbz747uosir9oxdan)"
           id="polyline1070" />
        <text
           lineHeight="1.2"
           wordWrap="break-word"
           overflowWrap="break-word"
           hyphens="auto"
           class="djs-label"
           style="font-weight:normal;font-size:11px;font-family:Helvetica, sans-serif;fill:#000000"
           id="text1074"><tspan
             x="246.22697"
             y="331.95395"
             id="tspan1072">buys</tspan></text>
        <text
           lineHeight="1.2"
           position="absolute"
           class="djs-labelNumber"
           style="font-weight:normal;font-size:150px;font-family:Courier;fill:#000000"
           id="text1078"><tspan
             x="181.22697"
             y="312.95395"
             id="tspan1076">.</tspan></text>
        <text
           lineHeight="1.2"
           backgroundColor="green"
           position="absolute"
           class="djs-labelNumber"
           style="font-weight:normal;font-size:11px;font-family:Helvetica, sans-serif;fill:#ffffff"
           id="text1082"><tspan
             x="220.22697"
             y="307.95395"
             id="tspan1080">01</tspan></text>
      </g>
      <polyline
         points="262,374 197,299 "
         class="djs-hit djs-hit-stroke"
         style="fill:none;stroke:#ffffff;stroke-width:15px;stroke-opacity:0"
         id="polyline1086" />
      <rect
         x="191"
         y="293"
         width="77"
         height="87"
         class="djs-outline"
         style="fill:none"
         id="rect1088" />
    </g>
  </g>
  <g
     class="djs-group"
     id="g1108"
     transform="matrix(0.5,0,0,0.5,-38.75,-67.03886)">
    <g
       class="djs-element djs-connection"
       data-element-id="connection_7845"
       style="display:block"
       id="g1106">
      <g
         class="djs-visual"
         id="g1100">
        <polyline
           points="176,217 177,135 "
           style="fill:none;stroke:#000000;stroke-width:1.5px;stroke-linejoin:round;marker-end:url(#activity-black-black-3muvwakipbz747uosir9oxdan)"
           id="polyline1094" />
        <text
           lineHeight="1.2"
           wordWrap="break-word"
           overflowWrap="break-word"
           hyphens="auto"
           class="djs-label"
           style="font-weight:normal;font-size:11px;font-family:Helvetica, sans-serif;fill:#000000"
           id="text1098"><tspan
             x="180.61646"
             y="176.11646"
             id="tspan1096">from</tspan></text>
      </g>
      <polyline
         points="176,217 177,135 "
         class="djs-hit djs-hit-stroke"
         style="fill:none;stroke:#ffffff;stroke-width:15px;stroke-opacity:0"
         id="polyline1102" />
      <rect
         x="170"
         y="129"
         width="13"
         height="94"
         class="djs-outline"
         style="fill:none"
         id="rect1104" />
    </g>
  </g>
  <g
     class="djs-group"
     id="g1132"
     transform="matrix(0.5,0,0,0.5,-6.75,-31.03886)">
    <g
       class="djs-element djs-connection"
       data-element-id="connection_6377"
       style="display:block"
       id="g1130">
      <g
         class="djs-visual"
         id="g1124">
        <polyline
           points="312,425 370,497 559,497 "
           style="fill:none;stroke:#000000;stroke-width:1.5px;stroke-linejoin:round;marker-end:url(#activity-black-black-3muvwakipbz747uosir9oxdan)"
           id="polyline1110" />
        <text
           lineHeight="1.2"
           wordWrap="break-word"
           overflowWrap="break-word"
           hyphens="auto"
           class="djs-label"
           style="font-weight:normal;font-size:11px;font-family:Helvetica, sans-serif;fill:#000000"
           id="text1114"><tspan
             x="445.75"
             y="512"
             id="tspan1112">shows</tspan></text>
        <text
           lineHeight="1.2"
           position="absolute"
           class="djs-labelNumber"
           style="font-weight:normal;font-size:150px;font-family:Courier;fill:#000000"
           id="text1118"><tspan
             x="413.5"
             y="493"
             id="tspan1116">.</tspan></text>
        <text
           lineHeight="1.2"
           backgroundColor="green"
           position="absolute"
           class="djs-labelNumber"
           style="font-weight:normal;font-size:11px;font-family:Helvetica, sans-serif;fill:#ffffff"
           id="text1122"><tspan
             x="452.5"
             y="488"
             id="tspan1120">03</tspan></text>
      </g>
      <polyline
         points="312,425 370,497 559,497 "
         class="djs-hit djs-hit-stroke"
         style="fill:none;stroke:#ffffff;stroke-width:15px;stroke-opacity:0"
         id="polyline1126" />
      <rect
         x="306"
         y="419"
         width="259"
         height="84"
         class="djs-outline"
         style="fill:none"
         id="rect1128" />
    </g>
  </g>
  <g
     class="djs-group"
     id="g1148"
     transform="matrix(0.5,0,0,0.5,-6.75,-31.03886)">
    <g
       class="djs-element djs-connection"
       data-element-id="connection_6164"
       style="display:block"
       id="g1146">
      <g
         class="djs-visual"
         id="g1140">
        <polyline
           points="597,556 597,788 567,788 "
           style="fill:none;stroke:#000000;stroke-width:1.5px;stroke-linejoin:round;marker-end:url(#activity-black-black-3muvwakipbz747uosir9oxdan)"
           id="polyline1134" />
        <text
           lineHeight="1.2"
           wordWrap="break-word"
           overflowWrap="break-word"
           hyphens="auto"
           class="djs-label"
           style="font-weight:normal;font-size:11px;font-family:Helvetica, sans-serif;fill:#000000"
           id="text1138"><tspan
             x="611"
             y="672"
             id="tspan1136">to</tspan></text>
      </g>
      <polyline
         points="597,556 597,788 567,788 "
         class="djs-hit djs-hit-stroke"
         style="fill:none;stroke:#ffffff;stroke-width:15px;stroke-opacity:0"
         id="polyline1142" />
      <rect
         x="561"
         y="550"
         width="42"
         height="244"
         class="djs-outline"
         style="fill:none"
         id="rect1144" />
    </g>
  </g>
  <g
     class="djs-group"
     id="g1172"
     transform="matrix(0.5,0,0,0.5,-6.75,-31.03886)">
    <g
       class="djs-element djs-connection"
       data-element-id="connection_6858"
       style="display:block"
       id="g1170">
      <g
         class="djs-visual"
         id="g1164">
        <polyline
           points="514,770 514,642 "
           style="fill:none;stroke:#000000;stroke-width:1.5px;stroke-linejoin:round;marker-end:url(#activity-black-black-3muvwakipbz747uosir9oxdan)"
           id="polyline1150" />
        <text
           lineHeight="1.2"
           wordWrap="break-word"
           overflowWrap="break-word"
           hyphens="auto"
           class="djs-label"
           style="font-weight:normal;font-size:11px;font-family:Helvetica, sans-serif;fill:#000000"
           id="text1154"><tspan
             x="528"
             y="706"
             id="tspan1152">checks</tspan></text>
        <text
           lineHeight="1.2"
           position="absolute"
           class="djs-labelNumber"
           style="font-weight:normal;font-size:150px;font-family:Courier;fill:#000000"
           id="text1158"><tspan
             x="463"
             y="687"
             id="tspan1156">.</tspan></text>
        <text
           lineHeight="1.2"
           backgroundColor="green"
           position="absolute"
           class="djs-labelNumber"
           style="font-weight:normal;font-size:11px;font-family:Helvetica, sans-serif;fill:#ffffff"
           id="text1162"><tspan
             x="502"
             y="682"
             id="tspan1160">04</tspan></text>
      </g>
      <polyline
         points="514,770 514,642 "
         class="djs-hit djs-hit-stroke"
         style="fill:none;stroke:#ffffff;stroke-width:15px;stroke-opacity:0"
         id="polyline1166" />
      <rect
         x="508"
         y="636"
         width="12"
         height="140"
         class="djs-outline"
         style="fill:none"
         id="rect1168" />
    </g>
  </g>
  <g
     class="djs-group"
     id="g1196"
     transform="matrix(0.5,0,0,0.5,-6.75,-31.03886)">
    <g
       class="djs-element djs-connection"
       data-element-id="connection_1906"
       style="display:block"
       id="g1194">
      <g
         class="djs-visual"
         id="g1188">
        <polyline
           points="158,771 158,655 "
           style="fill:none;stroke:#000000;stroke-width:1.5px;stroke-linejoin:round;marker-end:url(#activity-black-black-3muvwakipbz747uosir9oxdan)"
           id="polyline1174" />
        <text
           lineHeight="1.2"
           wordWrap="break-word"
           overflowWrap="break-word"
           hyphens="auto"
           class="djs-label"
           style="font-weight:normal;font-size:11px;font-family:Helvetica, sans-serif;fill:#000000"
           id="text1178"><tspan
             x="172"
             y="713"
             id="tspan1176">starts</tspan></text>
        <text
           lineHeight="1.2"
           position="absolute"
           class="djs-labelNumber"
           style="font-weight:normal;font-size:150px;font-family:Courier;fill:#000000"
           id="text1182"><tspan
             x="107"
             y="694"
             id="tspan1180">.</tspan></text>
        <text
           lineHeight="1.2"
           backgroundColor="green"
           position="absolute"
           class="djs-labelNumber"
           style="font-weight:normal;font-size:11px;font-family:Helvetica, sans-serif;fill:#ffffff"
           id="text1186"><tspan
             x="146"
             y="689"
             id="tspan1184">05</tspan></text>
      </g>
      <polyline
         points="158,771 158,655 "
         class="djs-hit djs-hit-stroke"
         style="fill:none;stroke:#ffffff;stroke-width:15px;stroke-opacity:0"
         id="polyline1190" />
      <rect
         x="152"
         y="649"
         width="12"
         height="128"
         class="djs-outline"
         style="fill:none"
         id="rect1192" />
    </g>
  </g>
  <g
     class="djs-group"
     id="g1220"
     transform="matrix(0.5,0,0,0.5,-6.75,-31.03886)">
    <g
       class="djs-element djs-connection"
       data-element-id="connection_7909"
       style="display:block"
       id="g1218">
      <g
         class="djs-visual"
         id="g1212">
        <polyline
           points="240,459 167,574 "
           style="fill:none;stroke:#000000;stroke-width:1.5px;stroke-linejoin:round;marker-end:url(#activity-black-black-3muvwakipbz747uosir9oxdan)"
           id="polyline1198" />
        <text
           lineHeight="1.2"
           wordWrap="break-word"
           overflowWrap="break-word"
           hyphens="auto"
           class="djs-label"
           style="font-weight:normal;font-size:11px;font-family:Helvetica, sans-serif;fill:#000000"
           id="text1202"><tspan
             x="220.69963"
             y="512.30225"
             id="tspan1200">watches</tspan></text>
        <text
           lineHeight="1.2"
           position="absolute"
           class="djs-labelNumber"
           style="font-weight:normal;font-size:150px;font-family:Courier;fill:#000000"
           id="text1206"><tspan
             x="155.69963"
             y="493.30222"
             id="tspan1204">.</tspan></text>
        <text
           lineHeight="1.2"
           backgroundColor="green"
           position="absolute"
           class="djs-labelNumber"
           style="font-weight:normal;font-size:11px;font-family:Helvetica, sans-serif;fill:#ffffff"
           id="text1210"><tspan
             x="194.69963"
             y="488.30222"
             id="tspan1208">06</tspan></text>
      </g>
      <polyline
         points="240,459 167,574 "
         class="djs-hit djs-hit-stroke"
         style="fill:none;stroke:#ffffff;stroke-width:15px;stroke-opacity:0"
         id="polyline1214" />
      <rect
         x="161"
         y="453"
         width="85"
         height="127"
         class="djs-outline"
         style="fill:none"
         id="rect1216" />
    </g>
  </g>
  <g
     class="djs-group"
     id="g1236"
     transform="matrix(0.5,0,0,0.5,-6.75,-31.03886)">
    <g
       class="djs-element djs-connection"
       data-element-id="connection_5975"
       style="display:block"
       id="g1234">
      <g
         class="djs-visual"
         id="g1228">
        <polyline
           points="476,595 357,595 290,454 "
           style="fill:none;stroke:#000000;stroke-width:1.5px;stroke-linejoin:round;marker-end:url(#activity-black-black-3muvwakipbz747uosir9oxdan)"
           id="polyline1222" />
        <text
           lineHeight="1.2"
           wordWrap="break-word"
           overflowWrap="break-word"
           hyphens="auto"
           class="djs-label"
           style="font-weight:normal;font-size:11px;font-family:Helvetica, sans-serif;fill:#000000"
           id="text1226"><tspan
             x="354.39999"
             y="610"
             id="tspan1224">and grants entrance to</tspan></text>
      </g>
      <polyline
         points="476,595 357,595 290,454 "
         class="djs-hit djs-hit-stroke"
         style="fill:none;stroke:#ffffff;stroke-width:15px;stroke-opacity:0"
         id="polyline1230" />
      <rect
         x="284"
         y="448"
         width="198"
         height="153"
         class="djs-outline"
         style="fill:none"
         id="rect1232" />
    </g>
  </g>
  <g
     class="djs-group"
     id="g1260"
     transform="matrix(0.5,0,0,0.5,-6.75,-67.03886)">
    <g
       class="djs-element djs-connection"
       data-element-id="connection_3681"
       style="display:block"
       id="g1258">
      <g
         class="djs-visual"
         id="g1252">
        <polyline
           points="296,393 445,287 "
           style="fill:none;stroke:#000000;stroke-width:1.5px;stroke-linejoin:round;marker-end:url(#activity-black-black-3muvwakipbz747uosir9oxdan)"
           id="polyline1238" />
        <text
           lineHeight="1.2"
           wordWrap="break-word"
           overflowWrap="break-word"
           hyphens="auto"
           class="djs-label"
           style="font-weight:normal;font-size:11px;font-family:Helvetica, sans-serif;fill:#000000"
           id="text1242"><tspan
             x="383.59528"
             y="349.09528"
             id="tspan1240">buys</tspan></text>
        <text
           lineHeight="1.2"
           position="absolute"
           class="djs-labelNumber"
           style="font-weight:normal;font-size:150px;font-family:Courier;fill:#000000"
           id="text1246"><tspan
             x="318.59528"
             y="330.09528"
             id="tspan1244">.</tspan></text>
        <text
           lineHeight="1.2"
           backgroundColor="green"
           position="absolute"
           class="djs-labelNumber"
           style="font-weight:normal;font-size:11px;font-family:Helvetica, sans-serif;fill:#ffffff"
           id="text1250"><tspan
             x="357.59528"
             y="325.09528"
             id="tspan1248">02</tspan></text>
      </g>
      <polyline
         points="296,393 445,287 "
         class="djs-hit djs-hit-stroke"
         style="fill:none;stroke:#ffffff;stroke-width:15px;stroke-opacity:0"
         id="polyline1254" />
      <rect
         x="290"
         y="281"
         width="161"
         height="118"
         class="djs-outline"
         style="fill:none"
         id="rect1256" />
    </g>
  </g>
  <g
     class="djs-group"
     id="g1276"
     transform="matrix(0.5,0,0,0.5,-6.75,-67.03886)">
    <g
       class="djs-element djs-connection"
       data-element-id="connection_5157"
       style="display:block"
       id="g1274">
      <g
         class="djs-visual"
         id="g1268">
        <polyline
           points="483,217 483,154 "
           style="fill:none;stroke:#000000;stroke-width:1.5px;stroke-linejoin:round;marker-end:url(#activity-black-black-3muvwakipbz747uosir9oxdan)"
           id="polyline1262" />
        <text
           lineHeight="1.2"
           wordWrap="break-word"
           overflowWrap="break-word"
           hyphens="auto"
           class="djs-label"
           style="font-weight:normal;font-size:11px;font-family:Helvetica, sans-serif;fill:#000000"
           id="text1266"><tspan
             x="497"
             y="185.5"
             id="tspan1264">from</tspan></text>
      </g>
      <polyline
         points="483,217 483,154 "
         class="djs-hit djs-hit-stroke"
         style="fill:none;stroke:#ffffff;stroke-width:15px;stroke-opacity:0"
         id="polyline1270" />
      <rect
         x="477"
         y="148"
         width="12"
         height="75"
         class="djs-outline"
         style="fill:none"
         id="rect1272" />
    </g>
  </g>
</svg>
