<?xml version="1.0" encoding="UTF-8" standalone="no"?>
<svg
   xmlns:dc="http://purl.org/dc/elements/1.1/"
   xmlns:cc="http://creativecommons.org/ns#"
   xmlns:rdf="http://www.w3.org/1999/02/22-rdf-syntax-ns#"
   xmlns:svg="http://www.w3.org/2000/svg"
   xmlns="http://www.w3.org/2000/svg"
   xmlns:sodipodi="http://sodipodi.sourceforge.net/DTD/sodipodi-0.dtd"
   xmlns:inkscape="http://www.inkscape.org/namespaces/inkscape"
   width="190"
   height="190.02539"
   viewBox="69 -36 190 115.8239"
   version="1.1"
   id="svg84"
   sodipodi:docname="02fig01-buildingblocks-actors.svg"
   inkscape:version="1.0.2 (e86c8708, 2021-01-15)">
  <metadata
     id="metadata90">
    <rdf:RDF>
      <cc:Work
         rdf:about="">
        <dc:format>image/svg+xml</dc:format>
        <dc:type
           rdf:resource="http://purl.org/dc/dcmitype/StillImage" />
        <dc:title></dc:title>
      </cc:Work>
    </rdf:RDF>
  </metadata>
  <defs
     id="defs88" />
  <sodipodi:namedview
     pagecolor="#ffffff"
     bordercolor="#666666"
     borderopacity="1"
     objecttolerance="10"
     gridtolerance="10"
     guidetolerance="10"
     inkscape:pageopacity="0"
     inkscape:pageshadow="2"
     inkscape:window-width="728"
     inkscape:window-height="480"
     id="namedview86"
     showgrid="false"
     fit-margin-top="0"
     fit-margin-left="0"
     fit-margin-right="0"
     fit-margin-bottom="0"
     inkscape:zoom="0.85851715"
     inkscape:cx="245"
     inkscape:cy="63.664884"
     inkscape:window-x="0"
     inkscape:window-y="25"
     inkscape:window-maximized="0"
     inkscape:current-layer="svg84" />
  <g
     class="djs-group"
     id="g42"
     transform="translate(1.5,-115.60075)">
    <g
       class="djs-element djs-shape hover"
       data-element-id="shape_1122"
       style="display:block"
       transform="translate(124,50)"
       id="g40">
      <g
         class="djs-visual"
         id="g34">
        <svg
           fill="#000000"
           viewBox="0 0 24 26"
           width="75"
           height="75"
           version="1.1"
           id="svg28">
          <path
             d="m 12,5.9 c 1.16,0 2.1,0.94 2.1,2.1 0,1.16 -0.94,2.1 -2.1,2.1 C 10.84,10.1 9.9,9.16 9.9,8 9.9,6.84 10.84,5.9 12,5.9 m 0,9 c 2.97,0 6.1,1.46 6.1,2.1 v 1.1 H 5.9 V 17 c 0,-0.64 3.13,-2.1 6.1,-2.1 M 12,4 C 9.79,4 8,5.79 8,8 c 0,2.21 1.79,4 4,4 2.21,0 4,-1.79 4,-4 0,-2.21 -1.79,-4 -4,-4 z m 0,9 c -2.67,0 -8,1.34 -8,4 v 3 h 16 v -3 c 0,-2.66 -5.33,-4 -8,-4 z"
             id="path24" />
          <path
             d="M 0,0 H 24 V 24 H 0 Z"
             fill="none"
             id="path26" />
        </svg>
        <text
           lineHeight="1.2"
           class="djs-label"
           style="font-weight:normal;font-size:12px;font-family:Helvetica, sans-serif;fill:#000000"
           id="text32"><tspan
             x="18.070312"
             y="75"
             id="tspan30">cashier</tspan></text>
      </g>
      <rect
         class="djs-hit djs-hit-all"
         x="0"
         y="0"
         width="75"
         height="75"
         style="fill:none;stroke:#ffffff;stroke-width:15px;stroke-opacity:0"
         id="rect36" />
      <rect
         x="-6"
         y="-6"
         width="87"
         height="87"
         class="djs-outline"
         style="fill:none"
         id="rect38" />
    </g>
  </g>
  <g
     class="djs-group"
     id="g62"
     transform="translate(1.5,-115.60075)">
    <g
       class="djs-element djs-shape"
       data-element-id="shape_8680"
       style="display:block"
       transform="translate(175,141)"
       id="g60">
      <g
         class="djs-visual"
         id="g54">
        <svg
           fill="#000000"
           viewBox="0 0 24 26"
           width="75"
           height="75"
           version="1.1"
           id="svg46">
          <path
             d="m 20,18 c 1.1,0 2,-0.9 2,-2 V 6 C 22,4.9 21.1,4 20,4 H 4 C 2.9,4 2,4.9 2,6 v 10 c 0,1.1 0.9,2 2,2 H 0 v 2 H 24 V 18 Z M 4,6 H 20 V 16 H 4 Z"
             id="path44" />
        </svg>
        <text
           lineHeight="1.2"
           class="djs-label"
           style="font-weight:normal;font-size:12px;font-family:Helvetica, sans-serif;fill:#000000"
           id="text52"><tspan
             x="0.8046875"
             y="75"
             id="tspan48">ticket booking</tspan><tspan
             x="18.492188"
             y="89"
             id="tspan50">system</tspan></text>
      </g>
      <rect
         class="djs-hit djs-hit-all"
         x="0"
         y="0"
         width="75"
         height="75"
         style="fill:none;stroke:#ffffff;stroke-width:15px;stroke-opacity:0"
         id="rect56" />
      <rect
         x="-6"
         y="-6"
         width="87"
         height="87"
         class="djs-outline"
         style="fill:none"
         id="rect58" />
    </g>
  </g>
  <g
     class="djs-group"
     id="g82"
     transform="translate(1.5,-115.60075)">
    <g
       class="djs-element djs-shape"
       data-element-id="shape_0270"
       style="display:block"
       transform="translate(75,140)"
       id="g80">
      <g
         class="djs-visual"
         id="g74">
        <svg
           fill="#000000"
           width="75"
           height="75"
           viewBox="0 0 24 26"
           version="1.1"
           id="svg68">
          <path
             d="M 0,0 H 24 V 24 H 0 Z"
             fill="none"
             id="path64" />
          <path
             d="M 16.5,13 C 15.3,13 13.43,13.34 12,14 10.57,13.33 8.7,13 7.5,13 5.33,13 1,14.08 1,16.25 V 19 H 23 V 16.25 C 23,14.08 18.67,13 16.5,13 Z m -4,4.5 h -10 v -1.25 c 0,-0.54 2.56,-1.75 5,-1.75 2.44,0 5,1.21 5,1.75 z m 9,0 H 14 v -1.25 c 0,-0.46 -0.2,-0.86 -0.52,-1.22 0.88,-0.3 1.96,-0.53 3.02,-0.53 2.44,0 5,1.21 5,1.75 z M 7.5,12 C 9.43,12 11,10.43 11,8.5 11,6.57 9.43,5 7.5,5 5.57,5 4,6.57 4,8.5 4,10.43 5.57,12 7.5,12 Z m 0,-5.5 c 1.1,0 2,0.9 2,2 0,1.1 -0.9,2 -2,2 -1.1,0 -2,-0.9 -2,-2 0,-1.1 0.9,-2 2,-2 z m 9,5.5 C 18.43,12 20,10.43 20,8.5 20,6.57 18.43,5 16.5,5 14.57,5 13,6.57 13,8.5 c 0,1.93 1.57,3.5 3.5,3.5 z m 0,-5.5 c 1.1,0 2,0.9 2,2 0,1.1 -0.9,2 -2,2 -1.1,0 -2,-0.9 -2,-2 0,-1.1 0.9,-2 2,-2 z"
             id="path66" />
        </svg>
        <text
           lineHeight="1.2"
           class="djs-label"
           style="font-weight:normal;font-size:12px;font-family:Helvetica, sans-serif;fill:#000000"
           id="text72"><tspan
             x="6.484375"
             y="75"
             id="tspan70">moviegoers</tspan></text>
      </g>
      <rect
         class="djs-hit djs-hit-all"
         x="0"
         y="0"
         width="75"
         height="75"
         style="fill:none;stroke:#ffffff;stroke-width:15px;stroke-opacity:0"
         id="rect76" />
      <rect
         x="-6"
         y="-6"
         width="87"
         height="87"
         class="djs-outline"
         style="fill:none"
         id="rect78" />
    </g>
  </g>
</svg>
