<?xml version="1.0" encoding="UTF-8" standalone="no"?>
<svg
   xmlns:dc="http://purl.org/dc/elements/1.1/"
   xmlns:cc="http://creativecommons.org/ns#"
   xmlns:rdf="http://www.w3.org/1999/02/22-rdf-syntax-ns#"
   xmlns:svg="http://www.w3.org/2000/svg"
   xmlns="http://www.w3.org/2000/svg"
   xmlns:sodipodi="http://sodipodi.sourceforge.net/DTD/sodipodi-0.dtd"
   xmlns:inkscape="http://www.inkscape.org/namespaces/inkscape"
   inkscape:version="1.0 (4035a4f, 2020-05-01)"
   sodipodi:docname="buildingblocks-activities.svg"
   id="svg237"
   version="1.1"
   viewBox="216 -129.10938 113.63553 59.759878"
   height="82.225571"
   width="113.63553">
  <metadata
     id="metadata241">
    <rdf:RDF>
      <cc:Work
         rdf:about="">
        <dc:format>image/svg+xml</dc:format>
        <dc:type
           rdf:resource="http://purl.org/dc/dcmitype/StillImage" />
        <dc:title></dc:title>
      </cc:Work>
    </rdf:RDF>
  </metadata>
  <sodipodi:namedview
     inkscape:current-layer="svg237"
     inkscape:window-maximized="0"
     inkscape:window-y="105"
     inkscape:window-x="263"
     inkscape:cy="113.26549"
     inkscape:cx="62.952619"
     inkscape:zoom="1.2228453"
     fit-margin-bottom="0"
     fit-margin-right="0"
     fit-margin-left="0"
     fit-margin-top="0"
     showgrid="false"
     id="namedview239"
     inkscape:window-height="480"
     inkscape:window-width="778"
     inkscape:pageshadow="2"
     inkscape:pageopacity="0"
     guidetolerance="10"
     gridtolerance="10"
     objecttolerance="10"
     borderopacity="1"
     bordercolor="#666666"
     pagecolor="#ffffff" />
  <defs
     id="defs13">
    <marker
       orient="auto"
       markerHeight="10"
       markerWidth="10"
       refY="10"
       refX="11"
       viewBox="0 0 20 20"
       id="activity-black-black-3d8hb80e1xclll4r6x9fpwpt3">
      <path
         id="path10"
         style="fill:#000000;stroke:#000000;stroke-width:1px;stroke-linecap:round;stroke-dasharray:10000, 1"
         d="M 1,5 11,10 1,15 Z" />
    </marker>
  </defs>
  <polyline
     transform="translate(-78.36447,-213.84049)"
     points="302,91 402,90 "
     style="fill:none;stroke:#000000;stroke-width:1.5px;stroke-linejoin:round;marker-end:url(#activity-black-black-3d8hb80e1xclll4r6x9fpwpt3)"
     id="polyline29" />
  <text
     y="-213.84048"
     x="-110.36447"
     lineHeight="1.2"
     wordWrap="break-word"
     overflowWrap="break-word"
     hyphens="auto"
     class="djs-label"
     style="font-weight:normal;font-size:11px;font-family:Helvetica, sans-serif;fill:#000000"
     id="text33"><tspan
       x="260.54004"
       y="-108.43597"
       id="tspan31">offers</tspan></text>
  <text
     y="-213.84048"
     x="-78.364471"
     lineHeight="1.2"
     backgroundColor="green"
     position="absolute"
     class="djs-labelNumber"
     style="font-weight:normal;font-size:11px;font-family:Helvetica, sans-serif;fill:#ffffff"
     id="text41"><tspan
       x="266.54004"
       y="-132.43597"
       id="tspan39">01</tspan></text>
  <polyline
     transform="translate(-78.36447,-213.84049)"
     id="polyline45"
     style="fill:none;stroke:#ffffff;stroke-width:15px;stroke-opacity:0"
     class="djs-hit djs-hit-stroke"
     points="302,91 402,90 " />
  <rect
     id="rect47"
     style="fill:none"
     class="djs-outline"
     height="13"
     width="112"
     y="-129.84048"
     x="217.63553" />
  <path
     id="polyline53"
     style="fill:none;stroke:#000000;stroke-width:1.5px;stroke-linejoin:round;marker-end:url(#activity-black-black-3d8hb80e1xclll4r6x9fpwpt3)"
     d="m 322,-75.995213 -100,-1" />
  <g
     transform="translate(-106,-240.99521)"
     aria-label="buys"
     id="text57"
     style="font-weight:normal;font-size:11px;font-family:Helvetica, sans-serif;fill:#000000"
     class="djs-label">
    <path
       d="m 367.64853,180.56366 h -0.89697 v -7.87402 h 0.96679 v 2.80908 q 0.61231,-0.76807 1.56299,-0.76807 0.52637,0 0.99365,0.21485 0.47266,0.20947 0.77344,0.59619 0.30615,0.38134 0.47803,0.92383 0.17187,0.54248 0.17187,1.16015 0,1.46631 -0.72509,2.2666 -0.7251,0.8003 -1.74024,0.8003 -1.00976,0 -1.58447,-0.84327 z m -0.0107,-2.89502 q 0,1.02588 0.27929,1.48242 0.45655,0.74658 1.23536,0.74658 0.63378,0 1.0957,-0.54785 0.46191,-0.55322 0.46191,-1.64355 0,-1.11719 -0.4458,-1.64893 -0.44043,-0.53174 -1.06885,-0.53174 -0.63379,0 -1.0957,0.55323 -0.46191,0.54785 -0.46191,1.58984 z"
       id="path244" />
    <path
       d="m 376.61826,180.56366 v -0.83789 q -0.66602,0.9668 -1.81006,0.9668 -0.50489,0 -0.94532,-0.19336 -0.43505,-0.19336 -0.6499,-0.4834 -0.20947,-0.29541 -0.29541,-0.71973 -0.0591,-0.28467 -0.0591,-0.90234 v -3.53418 h 0.9668 v 3.16357 q 0,0.75733 0.0591,1.02051 0.0913,0.38135 0.38672,0.60156 0.29541,0.21485 0.73047,0.21485 0.43505,0 0.8164,-0.22022 0.38135,-0.22558 0.53711,-0.60693 0.16113,-0.38672 0.16113,-1.11719 v -3.05615 h 0.9668 v 5.7041 z"
       id="path246" />
    <path
       d="m 378.96005,182.76044 -0.10742,-0.90772 q 0.3169,0.0859 0.55322,0.0859 0.32227,0 0.51563,-0.10742 0.19336,-0.10742 0.31689,-0.30078 0.0913,-0.14502 0.29541,-0.71973 0.0269,-0.0806 0.0859,-0.23633 l -2.16455,-5.71484 h 1.04199 l 1.18701,3.30322 q 0.23096,0.62842 0.41358,1.32129 0.1665,-0.66602 0.39746,-1.2998 l 1.21924,-3.32471 h 0.96679 l -2.16992,5.80078 q -0.34912,0.93994 -0.54248,1.29443 -0.25781,0.47803 -0.59082,0.69825 -0.33301,0.22558 -0.79492,0.22558 -0.2793,0 -0.62305,-0.11816 z"
       id="path248" />
    <path
       d="m 384.1163,178.86102 0.95606,-0.15039 q 0.0806,0.57471 0.4458,0.88086 0.3706,0.30615 1.03125,0.30615 0.66601,0 0.98828,-0.26855 0.32226,-0.27393 0.32226,-0.63916 0,-0.32764 -0.28466,-0.51563 -0.19873,-0.1289 -0.98828,-0.32763 -1.06348,-0.26856 -1.47706,-0.46192 -0.4082,-0.19873 -0.62304,-0.54248 -0.20947,-0.34912 -0.20947,-0.76806 0,-0.38135 0.17187,-0.70362 0.17725,-0.32763 0.47803,-0.54248 0.22558,-0.1665 0.6123,-0.27929 0.39209,-0.11817 0.83789,-0.11817 0.67139,0 1.17627,0.19336 0.51026,0.19336 0.75196,0.52637 0.24169,0.32764 0.333,0.88086 l -0.94531,0.1289 q -0.0644,-0.44043 -0.37598,-0.6875 -0.30615,-0.24707 -0.87011,-0.24707 -0.66602,0 -0.95069,0.22022 -0.28466,0.22021 -0.28466,0.51562 0,0.18799 0.11816,0.33838 0.11816,0.15576 0.37061,0.25781 0.14501,0.0537 0.854,0.24708 1.02588,0.27392 1.42871,0.45117 0.4082,0.17187 0.63916,0.50488 0.23096,0.33301 0.23096,0.82715 0,0.4834 -0.28467,0.91308 -0.2793,0.42432 -0.81104,0.66065 -0.53173,0.23096 -1.20312,0.23096 -1.11182,0 -1.69727,-0.46192 -0.58007,-0.46191 -0.74121,-1.36963 z"
       id="path250" />
  </g>
  <path
     class="djs-hit djs-hit-stroke"
     d="m 322,-75.995213 -100,-1"
     style="fill:none;stroke:#ffffff;stroke-width:15px;stroke-opacity:0"
     id="polyline69" />
  <path
     class="djs-outline"
     d="m 216,-82.995213 h 112 v 13 H 216 Z"
     style="fill:none"
     id="rect71" />
</svg>
