<?xml version="1.0" encoding="UTF-8" standalone="no"?>
<svg
   xmlns:dc="http://purl.org/dc/elements/1.1/"
   xmlns:cc="http://creativecommons.org/ns#"
   xmlns:rdf="http://www.w3.org/1999/02/22-rdf-syntax-ns#"
   xmlns:svg="http://www.w3.org/2000/svg"
   xmlns="http://www.w3.org/2000/svg"
   xmlns:sodipodi="http://sodipodi.sourceforge.net/DTD/sodipodi-0.dtd"
   xmlns:inkscape="http://www.inkscape.org/namespaces/inkscape"
   width="480"
   height="645"
   viewBox="236 -270 480 573.99768"
   version="1.1"
   id="svg537"
   sodipodi:docname="sentences.svg"
   inkscape:version="1.0.1 (c497b03c, 2020-09-10)">
  <metadata
     id="metadata541">
    <rdf:RDF>
      <cc:Work
         rdf:about="">
        <dc:format>image/svg+xml</dc:format>
        <dc:type
           rdf:resource="http://purl.org/dc/dcmitype/StillImage" />
        <dc:title></dc:title>
      </cc:Work>
    </rdf:RDF>
  </metadata>
  <sodipodi:namedview
     pagecolor="#ffffff"
     bordercolor="#666666"
     borderopacity="1"
     objecttolerance="10"
     gridtolerance="10"
     guidetolerance="10"
     inkscape:pageopacity="0"
     inkscape:pageshadow="2"
     inkscape:window-width="995"
     inkscape:window-height="728"
     id="namedview539"
     showgrid="false"
     fit-margin-top="0"
     fit-margin-left="0"
     fit-margin-right="0"
     fit-margin-bottom="0"
     inkscape:zoom="0.65842972"
     inkscape:cx="240"
     inkscape:cy="343.00004"
     inkscape:window-x="0"
     inkscape:window-y="23"
     inkscape:window-maximized="0"
     inkscape:current-layer="svg537" />
  <defs
     id="defs13">
    <marker
       id="activity-black-black-c94g41lr94k5rfnjjl8a0g0qt"
       viewBox="0 0 20 20"
       refX="11"
       refY="10"
       markerWidth="10"
       markerHeight="10"
       orient="auto">
      <path
         d="M 1,5 11,10 1,15 Z"
         style="fill:#000000;stroke:#000000;stroke-width:1px;stroke-linecap:round;stroke-dasharray:10000, 1"
         id="path10" />
    </marker>
  </defs>
  <g
     class="djs-group"
     id="g47"
     transform="translate(1.5,-210.00116)">
    <g
       class="djs-element djs-shape"
       data-element-id="shape_4544"
       style="display:block"
       transform="translate(580,32)"
       id="g45">
      <g
         class="djs-visual"
         id="g39">
        <svg
           fill="#000000"
           width="48.75"
           height="48.75"
           viewBox="0 0 24 26"
           x="12.5"
           y="12.5"
           version="1.1"
           id="svg33">
          <path
             fill="none"
             d="M 0,0 H 24 V 24 H 0 Z"
             id="path29" />
          <path
             d="m 8,16 h 8 v 2 H 8 Z m 0,-4 h 8 v 2 H 8 Z M 14,2 H 6 C 4.9,2 4,2.9 4,4 v 16 c 0,1.1 0.89,2 1.99,2 H 18 c 1.1,0 2,-0.9 2,-2 V 8 Z m 4,18 H 6 V 4 h 7 v 5 h 5 z"
             id="path31" />
        </svg>
        <text
           lineHeight="1.2"
           class="djs-label"
           style="font-weight:normal;font-size:12px;font-family:Helvetica, sans-serif;fill:#000000"
           id="text37"><tspan
             x="34.5"
             y="74.75"
             id="tspan35">v</tspan></text>
      </g>
      <rect
         class="djs-hit djs-hit-all"
         x="0"
         y="0"
         width="75"
         height="75"
         style="fill:none;stroke:#ffffff;stroke-width:15px;stroke-opacity:0"
         id="rect41" />
      <rect
         x="-6"
         y="-6"
         width="87"
         height="87"
         class="djs-outline"
         style="fill:none"
         id="rect43" />
    </g>
  </g>
  <g
     class="djs-group"
     id="g67"
     transform="translate(1.5,-210.00116)">
    <g
       class="djs-element djs-shape"
       data-element-id="shape_6931"
       style="display:block"
       transform="translate(437,32)"
       id="g65">
      <g
         class="djs-visual"
         id="g59">
        <svg
           fill="#000000"
           width="48.75"
           height="48.75"
           viewBox="0 0 24 26"
           x="12.5"
           y="12.5"
           version="1.1"
           id="svg53">
          <path
             fill="none"
             d="M 0,0 H 24 V 24 H 0 Z"
             id="path49" />
          <path
             d="m 8,16 h 8 v 2 H 8 Z m 0,-4 h 8 v 2 H 8 Z M 14,2 H 6 C 4.9,2 4,2.9 4,4 v 16 c 0,1.1 0.89,2 1.99,2 H 18 c 1.1,0 2,-0.9 2,-2 V 8 Z m 4,18 H 6 V 4 h 7 v 5 h 5 z"
             id="path51" />
        </svg>
        <text
           lineHeight="1.2"
           class="djs-label"
           style="font-weight:normal;font-size:12px;font-family:Helvetica, sans-serif;fill:#000000"
           id="text57"><tspan
             x="33.164062"
             y="74.75"
             id="tspan55">w</tspan></text>
      </g>
      <rect
         class="djs-hit djs-hit-all"
         x="0"
         y="0"
         width="75"
         height="75"
         style="fill:none;stroke:#ffffff;stroke-width:15px;stroke-opacity:0"
         id="rect61" />
      <rect
         x="-6"
         y="-6"
         width="87"
         height="87"
         class="djs-outline"
         style="fill:none"
         id="rect63" />
    </g>
  </g>
  <g
     class="djs-group"
     id="g83"
     transform="translate(1.5,-210.00116)">
    <g
       class="djs-element djs-connection"
       data-element-id="connection_0536"
       style="display:block"
       id="g81">
      <g
         class="djs-visual"
         id="g75">
        <polyline
           points="517,70 580,70 "
           style="fill:none;stroke:#000000;stroke-width:1.5px;stroke-linejoin:round;marker-end:url(#activity-black-black-c94g41lr94k5rfnjjl8a0g0qt)"
           id="polyline69" />
        <text
           lineHeight="1.2"
           wordWrap="break-word"
           overflowWrap="break-word"
           hyphens="auto"
           class="djs-label"
           style="font-weight:normal;font-size:11px;font-family:Helvetica, sans-serif;fill:#000000"
           id="text73"><tspan
             x="529.75"
             y="85"
             id="tspan71">using</tspan></text>
      </g>
      <polyline
         points="517,70 580,70 "
         class="djs-hit djs-hit-stroke"
         style="fill:none;stroke:#ffffff;stroke-width:15px;stroke-opacity:0"
         id="polyline77" />
      <rect
         x="511"
         y="64"
         width="75"
         height="12"
         class="djs-outline"
         style="fill:none"
         id="rect79" />
    </g>
  </g>
  <g
     class="djs-group"
     id="g107"
     transform="translate(1.5,-210.00116)">
    <g
       class="djs-element djs-connection"
       data-element-id="connection_4288"
       style="display:block"
       id="g105">
      <g
         class="djs-visual"
         id="g99">
        <polyline
           points="323,70 437,70 "
           style="fill:none;stroke:#000000;stroke-width:1.5px;stroke-linejoin:round;marker-end:url(#activity-black-black-c94g41lr94k5rfnjjl8a0g0qt)"
           id="polyline85" />
        <text
           lineHeight="1.2"
           wordWrap="break-word"
           overflowWrap="break-word"
           hyphens="auto"
           class="djs-label"
           style="font-weight:normal;font-size:11px;font-family:Helvetica, sans-serif;fill:#000000"
           id="text89"><tspan
             x="353.60001"
             y="85"
             id="tspan87">works on</tspan></text>
        <text
           lineHeight="1.2"
           position="absolute"
           class="djs-labelNumber"
           style="font-weight:normal;font-size:150px;font-family:Courier;fill:#000000"
           id="text93"><tspan
             x="329"
             y="66"
             id="tspan91">.</tspan></text>
        <text
           lineHeight="1.2"
           backgroundColor="green"
           position="absolute"
           class="djs-labelNumber"
           style="font-weight:normal;font-size:11px;font-family:Helvetica, sans-serif;fill:#ffffff"
           id="text97"><tspan
             x="368"
             y="61"
             id="tspan95">02</tspan></text>
      </g>
      <polyline
         points="323,70 437,70 "
         class="djs-hit djs-hit-stroke"
         style="fill:none;stroke:#ffffff;stroke-width:15px;stroke-opacity:0"
         id="polyline101" />
      <rect
         x="317"
         y="64"
         width="126"
         height="12"
         class="djs-outline"
         style="fill:none"
         id="rect103" />
    </g>
  </g>
  <g
     class="djs-group"
     id="g127"
     transform="translate(1.5,-210.00116)">
    <g
       class="djs-element djs-shape"
       data-element-id="shape_6733"
       style="display:block"
       transform="translate(437,172)"
       id="g125">
      <g
         class="djs-visual"
         id="g119">
        <svg
           fill="#000000"
           width="48.75"
           height="48.75"
           viewBox="0 0 24 26"
           x="12.5"
           y="12.5"
           version="1.1"
           id="svg113">
          <path
             fill="none"
             d="M 0,0 H 24 V 24 H 0 Z"
             id="path109" />
          <path
             d="m 8,16 h 8 v 2 H 8 Z m 0,-4 h 8 v 2 H 8 Z M 14,2 H 6 C 4.9,2 4,2.9 4,4 v 16 c 0,1.1 0.89,2 1.99,2 H 18 c 1.1,0 2,-0.9 2,-2 V 8 Z m 4,18 H 6 V 4 h 7 v 5 h 5 z"
             id="path111" />
        </svg>
        <text
           lineHeight="1.2"
           class="djs-label"
           style="font-weight:normal;font-size:12px;font-family:Helvetica, sans-serif;fill:#000000"
           id="text117"><tspan
             x="33.164062"
             y="74.75"
             id="tspan115">w</tspan></text>
      </g>
      <rect
         class="djs-hit djs-hit-all"
         x="0"
         y="0"
         width="75"
         height="75"
         style="fill:none;stroke:#ffffff;stroke-width:15px;stroke-opacity:0"
         id="rect121" />
      <rect
         x="-6"
         y="-6"
         width="87"
         height="87"
         class="djs-outline"
         style="fill:none"
         id="rect123" />
    </g>
  </g>
  <g
     class="djs-group"
     id="g143"
     transform="translate(1.5,-210.00116)">
    <g
       class="djs-element djs-connection"
       data-element-id="connection_5595"
       style="display:block"
       id="g141">
      <g
         class="djs-visual"
         id="g135">
        <polyline
           points="518,210 632,210 "
           style="fill:none;stroke:#000000;stroke-width:1.5px;stroke-linejoin:round;marker-end:url(#activity-black-black-c94g41lr94k5rfnjjl8a0g0qt)"
           id="polyline129" />
        <text
           lineHeight="1.2"
           wordWrap="break-word"
           overflowWrap="break-word"
           hyphens="auto"
           class="djs-label"
           style="font-weight:normal;font-size:11px;font-family:Helvetica, sans-serif;fill:#000000"
           id="text133"><tspan
             x="563.90002"
             y="225"
             id="tspan131">to</tspan></text>
      </g>
      <polyline
         points="518,210 632,210 "
         class="djs-hit djs-hit-stroke"
         style="fill:none;stroke:#ffffff;stroke-width:15px;stroke-opacity:0"
         id="polyline137" />
      <rect
         x="512"
         y="204"
         width="126"
         height="12"
         class="djs-outline"
         style="fill:none"
         id="rect139" />
    </g>
  </g>
  <g
     class="djs-group"
     id="g167"
     transform="translate(1.5,-210.00116)">
    <g
       class="djs-element djs-connection"
       data-element-id="connection_2228"
       style="display:block"
       id="g165">
      <g
         class="djs-visual"
         id="g159">
        <polyline
           points="323,210 437,210 "
           style="fill:none;stroke:#000000;stroke-width:1.5px;stroke-linejoin:round;marker-end:url(#activity-black-black-c94g41lr94k5rfnjjl8a0g0qt)"
           id="polyline145" />
        <text
           lineHeight="1.2"
           wordWrap="break-word"
           overflowWrap="break-word"
           hyphens="auto"
           class="djs-label"
           style="font-weight:normal;font-size:11px;font-family:Helvetica, sans-serif;fill:#000000"
           id="text149"><tspan
             x="348.5"
             y="225"
             id="tspan147">hands over</tspan></text>
        <text
           lineHeight="1.2"
           position="absolute"
           class="djs-labelNumber"
           style="font-weight:normal;font-size:150px;font-family:Courier;fill:#000000"
           id="text153"><tspan
             x="329"
             y="206"
             id="tspan151">.</tspan></text>
        <text
           lineHeight="1.2"
           backgroundColor="green"
           position="absolute"
           class="djs-labelNumber"
           style="font-weight:normal;font-size:11px;font-family:Helvetica, sans-serif;fill:#ffffff"
           id="text157"><tspan
             x="368"
             y="201"
             id="tspan155">03</tspan></text>
      </g>
      <polyline
         points="323,210 437,210 "
         class="djs-hit djs-hit-stroke"
         style="fill:none;stroke:#ffffff;stroke-width:15px;stroke-opacity:0"
         id="polyline161" />
      <rect
         x="317"
         y="204"
         width="126"
         height="12"
         class="djs-outline"
         style="fill:none"
         id="rect163" />
    </g>
  </g>
  <g
     class="djs-group"
     id="g183"
     transform="translate(1.5,-210.00116)">
    <g
       class="djs-element djs-connection"
       data-element-id="connection_7235"
       style="display:block"
       id="g181">
      <g
         class="djs-visual"
         id="g175">
        <polyline
           points="507,379 632,397 "
           style="fill:none;stroke:#000000;stroke-width:1.5px;stroke-linejoin:round;marker-end:url(#activity-black-black-c94g41lr94k5rfnjjl8a0g0qt)"
           id="polyline169" />
        <text
           lineHeight="1.2"
           wordWrap="break-word"
           overflowWrap="break-word"
           hyphens="auto"
           class="djs-label"
           style="font-weight:normal;font-size:11px;font-family:Helvetica, sans-serif;fill:#000000"
           id="text173"><tspan
             x="574.86572"
             y="378.91046"
             id="tspan171">and</tspan></text>
      </g>
      <polyline
         points="507,379 632,397 "
         class="djs-hit djs-hit-stroke"
         style="fill:none;stroke:#ffffff;stroke-width:15px;stroke-opacity:0"
         id="polyline177" />
      <rect
         x="501"
         y="373"
         width="137"
         height="30"
         class="djs-outline"
         style="fill:none"
         id="rect179" />
    </g>
  </g>
  <g
     class="djs-group"
     id="g199"
     transform="translate(1.5,-210.00116)">
    <g
       class="djs-element djs-connection"
       data-element-id="connection_0471"
       style="display:block"
       id="g197">
      <g
         class="djs-visual"
         id="g191">
        <polyline
           points="507,350 632,330 "
           style="fill:none;stroke:#000000;stroke-width:1.5px;stroke-linejoin:round;marker-end:url(#activity-black-black-c94g41lr94k5rfnjjl8a0g0qt)"
           id="polyline185" />
        <text
           lineHeight="1.2"
           wordWrap="break-word"
           overflowWrap="break-word"
           hyphens="auto"
           class="djs-label"
           style="font-weight:normal;font-size:11px;font-family:Helvetica, sans-serif;fill:#000000"
           id="text189"><tspan
             x="586.98492"
             y="353.48495"
             id="tspan187">to</tspan></text>
      </g>
      <polyline
         points="507,350 632,330 "
         class="djs-hit djs-hit-stroke"
         style="fill:none;stroke:#ffffff;stroke-width:15px;stroke-opacity:0"
         id="polyline193" />
      <rect
         x="501"
         y="324"
         width="137"
         height="32"
         class="djs-outline"
         style="fill:none"
         id="rect195" />
    </g>
  </g>
  <g
     class="djs-group"
     id="g223"
     transform="translate(1.5,-210.00116)">
    <g
       class="djs-element djs-connection"
       data-element-id="connection_8503"
       style="display:block"
       id="g221">
      <g
         class="djs-visual"
         id="g215">
        <polyline
           points="323,360 437,360 "
           style="fill:none;stroke:#000000;stroke-width:1.5px;stroke-linejoin:round;marker-end:url(#activity-black-black-c94g41lr94k5rfnjjl8a0g0qt)"
           id="polyline201" />
        <text
           lineHeight="1.2"
           wordWrap="break-word"
           overflowWrap="break-word"
           hyphens="auto"
           class="djs-label"
           style="font-weight:normal;font-size:11px;font-family:Helvetica, sans-serif;fill:#000000"
           id="text205"><tspan
             x="348.5"
             y="375"
             id="tspan203">hands over</tspan></text>
        <text
           lineHeight="1.2"
           position="absolute"
           class="djs-labelNumber"
           style="font-weight:normal;font-size:150px;font-family:Courier;fill:#000000"
           id="text209"><tspan
             x="329"
             y="356"
             id="tspan207">.</tspan></text>
        <text
           lineHeight="1.2"
           backgroundColor="green"
           position="absolute"
           class="djs-labelNumber"
           style="font-weight:normal;font-size:11px;font-family:Helvetica, sans-serif;fill:#ffffff"
           id="text213"><tspan
             x="368"
             y="351"
             id="tspan211">04</tspan></text>
      </g>
      <polyline
         points="323,360 437,360 "
         class="djs-hit djs-hit-stroke"
         style="fill:none;stroke:#ffffff;stroke-width:15px;stroke-opacity:0"
         id="polyline217" />
      <rect
         x="317"
         y="354"
         width="126"
         height="12"
         class="djs-outline"
         style="fill:none"
         id="rect219" />
    </g>
  </g>
  <g
     class="djs-group"
     id="g243"
     transform="translate(1.5,-210.00116)">
    <g
       class="djs-element djs-shape"
       data-element-id="shape_7687"
       style="display:block"
       transform="translate(437,322)"
       id="g241">
      <g
         class="djs-visual"
         id="g235">
        <svg
           fill="#000000"
           width="48.75"
           height="48.75"
           viewBox="0 0 24 26"
           x="12.5"
           y="12.5"
           version="1.1"
           id="svg229">
          <path
             fill="none"
             d="M 0,0 H 24 V 24 H 0 Z"
             id="path225" />
          <path
             d="m 8,16 h 8 v 2 H 8 Z m 0,-4 h 8 v 2 H 8 Z M 14,2 H 6 C 4.9,2 4,2.9 4,4 v 16 c 0,1.1 0.89,2 1.99,2 H 18 c 1.1,0 2,-0.9 2,-2 V 8 Z m 4,18 H 6 V 4 h 7 v 5 h 5 z"
             id="path227" />
        </svg>
        <text
           lineHeight="1.2"
           class="djs-label"
           style="font-weight:normal;font-size:12px;font-family:Helvetica, sans-serif;fill:#000000"
           id="text233"><tspan
             x="33.164062"
             y="74.75"
             id="tspan231">w</tspan></text>
      </g>
      <rect
         class="djs-hit djs-hit-all"
         x="0"
         y="0"
         width="75"
         height="75"
         style="fill:none;stroke:#ffffff;stroke-width:15px;stroke-opacity:0"
         id="rect237" />
      <rect
         x="-6"
         y="-6"
         width="87"
         height="87"
         class="djs-outline"
         style="fill:none"
         id="rect239" />
    </g>
  </g>
  <g
     class="djs-group"
     id="g263"
     transform="translate(1.5,-210.00116)">
    <g
       class="djs-element djs-shape"
       data-element-id="shape_9895"
       style="display:block"
       transform="translate(437,467)"
       id="g261">
      <g
         class="djs-visual"
         id="g255">
        <svg
           fill="#000000"
           width="48.75"
           height="48.75"
           viewBox="0 0 24 26"
           x="12.5"
           y="12.5"
           version="1.1"
           id="svg249">
          <path
             fill="none"
             d="M 0,0 H 24 V 24 H 0 Z"
             id="path245" />
          <path
             d="m 8,16 h 8 v 2 H 8 Z m 0,-4 h 8 v 2 H 8 Z M 14,2 H 6 C 4.9,2 4,2.9 4,4 v 16 c 0,1.1 0.89,2 1.99,2 H 18 c 1.1,0 2,-0.9 2,-2 V 8 Z m 4,18 H 6 V 4 h 7 v 5 h 5 z"
             id="path247" />
        </svg>
        <text
           lineHeight="1.2"
           class="djs-label"
           style="font-weight:normal;font-size:12px;font-family:Helvetica, sans-serif;fill:#000000"
           id="text253"><tspan
             x="33.164062"
             y="74.75"
             id="tspan251">w</tspan></text>
      </g>
      <rect
         class="djs-hit djs-hit-all"
         x="0"
         y="0"
         width="75"
         height="75"
         style="fill:none;stroke:#ffffff;stroke-width:15px;stroke-opacity:0"
         id="rect257" />
      <rect
         x="-6"
         y="-6"
         width="87"
         height="87"
         class="djs-outline"
         style="fill:none"
         id="rect259" />
    </g>
  </g>
  <polyline
     points="632,505 518,506 "
     style="fill:none;stroke:#000000;stroke-width:1.5px;stroke-linejoin:round;marker-end:url(#activity-black-black-c94g41lr94k5rfnjjl8a0g0qt)"
     id="polyline265"
     transform="translate(1.5,-210.00116)" />
  <text
     lineHeight="1.2"
     wordWrap="break-word"
     overflowWrap="break-word"
     hyphens="auto"
     class="djs-label"
     style="font-weight:normal;font-size:11px;font-family:Helvetica, sans-serif;fill:#000000"
     id="text269"
     x="-48.5"
     y="-210.00116"><tspan
       x="540.52789"
       y="310.3313"
       id="tspan267">collaborates on</tspan></text>
  <text
     lineHeight="1.2"
     position="absolute"
     class="djs-labelNumber"
     style="font-weight:normal;font-size:150px;font-family:Courier;fill:#000000"
     id="text273"
     x="1.5"
     y="-210.00116"><tspan
       x="525.52789"
       y="291.3313"
       id="tspan271">.</tspan></text>
  <text
     lineHeight="1.2"
     backgroundColor="green"
     position="absolute"
     class="djs-labelNumber"
     style="font-weight:normal;font-size:11px;font-family:Helvetica, sans-serif;fill:#ffffff"
     id="text277"
     x="1.5"
     y="-210.00116"><tspan
       x="564.52789"
       y="286.3313"
       id="tspan275">05</tspan></text>
  <polyline
     points="632,505 518,506 "
     class="djs-hit djs-hit-stroke"
     style="fill:none;stroke:#ffffff;stroke-width:15px;stroke-opacity:0"
     id="polyline281"
     transform="translate(1.5,-210.00116)" />
  <rect
     x="513.5"
     y="288.99884"
     width="126"
     height="13"
     class="djs-outline"
     style="fill:none"
     id="rect283" />
  <g
     class="djs-group"
     id="g311"
     transform="translate(1.5,-210.00116)">
    <g
       class="djs-element djs-connection"
       data-element-id="connection_4154"
       style="display:block"
       id="g309">
      <g
         class="djs-visual"
         id="g303">
        <polyline
           points="323,505 437,505 "
           style="fill:none;stroke:#000000;stroke-width:1.5px;stroke-linejoin:round;marker-end:url(#activity-black-black-c94g41lr94k5rfnjjl8a0g0qt)"
           id="polyline289" />
        <text
           lineHeight="1.2"
           wordWrap="break-word"
           overflowWrap="break-word"
           hyphens="auto"
           class="djs-label"
           style="font-weight:normal;font-size:11px;font-family:Helvetica, sans-serif;fill:#000000"
           id="text293"><tspan
             x="335.75"
             y="520"
             id="tspan291">collaborates on</tspan></text>
        <text
           lineHeight="1.2"
           position="absolute"
           class="djs-labelNumber"
           style="font-weight:normal;font-size:150px;font-family:Courier;fill:#000000"
           id="text297"><tspan
             x="329"
             y="501"
             id="tspan295">.</tspan></text>
        <text
           lineHeight="1.2"
           backgroundColor="green"
           position="absolute"
           class="djs-labelNumber"
           style="font-weight:normal;font-size:11px;font-family:Helvetica, sans-serif;fill:#ffffff"
           id="text301"><tspan
             x="368"
             y="496"
             id="tspan299">05</tspan></text>
      </g>
      <polyline
         points="323,505 437,505 "
         class="djs-hit djs-hit-stroke"
         style="fill:none;stroke:#ffffff;stroke-width:15px;stroke-opacity:0"
         id="polyline305" />
      <rect
         x="317"
         y="499"
         width="126"
         height="12"
         class="djs-outline"
         style="fill:none"
         id="rect307" />
    </g>
  </g>
  <g
     class="djs-group"
     id="g331"
     transform="translate(1.5,-210.00116)">
    <g
       class="djs-element djs-shape"
       data-element-id="shape_5115"
       style="display:block"
       transform="translate(437,-88)"
       id="g329">
      <g
         class="djs-visual"
         id="g323">
        <svg
           fill="#000000"
           width="48.75"
           height="48.75"
           viewBox="0 0 24 26"
           x="12.5"
           y="12.5"
           version="1.1"
           id="svg317">
          <path
             fill="none"
             d="M 0,0 H 24 V 24 H 0 Z"
             id="path313" />
          <path
             d="m 8,16 h 8 v 2 H 8 Z m 0,-4 h 8 v 2 H 8 Z M 14,2 H 6 C 4.9,2 4,2.9 4,4 v 16 c 0,1.1 0.89,2 1.99,2 H 18 c 1.1,0 2,-0.9 2,-2 V 8 Z m 4,18 H 6 V 4 h 7 v 5 h 5 z"
             id="path315" />
        </svg>
        <text
           lineHeight="1.2"
           class="djs-label"
           style="font-weight:normal;font-size:12px;font-family:Helvetica, sans-serif;fill:#000000"
           id="text321"><tspan
             x="33.164062"
             y="74.75"
             id="tspan319">w</tspan></text>
      </g>
      <rect
         class="djs-hit djs-hit-all"
         x="0"
         y="0"
         width="75"
         height="75"
         style="fill:none;stroke:#ffffff;stroke-width:15px;stroke-opacity:0"
         id="rect325" />
      <rect
         x="-6"
         y="-6"
         width="87"
         height="87"
         class="djs-outline"
         style="fill:none"
         id="rect327" />
    </g>
  </g>
  <g
     class="djs-group"
     id="g355"
     transform="translate(1.5,-210.00116)">
    <g
       class="djs-element djs-connection"
       data-element-id="connection_2031"
       style="display:block"
       id="g353">
      <g
         class="djs-visual"
         id="g347">
        <polyline
           points="323,-50 437,-50 "
           style="fill:none;stroke:#000000;stroke-width:1.5px;stroke-linejoin:round;marker-end:url(#activity-black-black-c94g41lr94k5rfnjjl8a0g0qt)"
           id="polyline333" />
        <text
           lineHeight="1.2"
           wordWrap="break-word"
           overflowWrap="break-word"
           hyphens="auto"
           class="djs-label"
           style="font-weight:normal;font-size:11px;font-family:Helvetica, sans-serif;fill:#000000"
           id="text337"><tspan
             x="353.60001"
             y="-35"
             id="tspan335">works on</tspan></text>
        <text
           lineHeight="1.2"
           position="absolute"
           class="djs-labelNumber"
           style="font-weight:normal;font-size:150px;font-family:Courier;fill:#000000"
           id="text341"><tspan
             x="329"
             y="-54"
             id="tspan339">.</tspan></text>
        <text
           lineHeight="1.2"
           backgroundColor="green"
           position="absolute"
           class="djs-labelNumber"
           style="font-weight:normal;font-size:11px;font-family:Helvetica, sans-serif;fill:#ffffff"
           id="text345"><tspan
             x="368"
             y="-59"
             id="tspan343">01</tspan></text>
      </g>
      <polyline
         points="323,-50 437,-50 "
         class="djs-hit djs-hit-stroke"
         style="fill:none;stroke:#ffffff;stroke-width:15px;stroke-opacity:0"
         id="polyline349" />
      <rect
         x="317"
         y="-56"
         width="126"
         height="12"
         class="djs-outline"
         style="fill:none"
         id="rect351" />
    </g>
  </g>
  <g
     class="djs-group"
     id="g375"
     transform="translate(1.5,-210.00116)">
    <g
       class="djs-element djs-shape"
       data-element-id="shape_6250"
       style="display:block"
       transform="translate(242,467)"
       id="g373">
      <g
         class="djs-visual"
         id="g367">
        <svg
           fill="#000000"
           viewBox="0 0 24 26"
           width="75"
           height="75"
           version="1.1"
           id="svg361">
          <path
             d="m 12,5.9 c 1.16,0 2.1,0.94 2.1,2.1 0,1.16 -0.94,2.1 -2.1,2.1 C 10.84,10.1 9.9,9.16 9.9,8 9.9,6.84 10.84,5.9 12,5.9 m 0,9 c 2.97,0 6.1,1.46 6.1,2.1 v 1.1 H 5.9 V 17 c 0,-0.64 3.13,-2.1 6.1,-2.1 M 12,4 C 9.79,4 8,5.79 8,8 c 0,2.21 1.79,4 4,4 2.21,0 4,-1.79 4,-4 0,-2.21 -1.79,-4 -4,-4 z m 0,9 c -2.67,0 -8,1.34 -8,4 v 3 h 16 v -3 c 0,-2.66 -5.33,-4 -8,-4 z"
             id="path357" />
          <path
             d="M 0,0 H 24 V 24 H 0 Z"
             fill="none"
             id="path359" />
        </svg>
        <text
           lineHeight="1.2"
           class="djs-label"
           style="font-weight:normal;font-size:12px;font-family:Helvetica, sans-serif;fill:#000000"
           id="text365"><tspan
             x="33.5"
             y="75"
             id="tspan363">A</tspan></text>
      </g>
      <rect
         class="djs-hit djs-hit-all"
         x="0"
         y="0"
         width="75"
         height="75"
         style="fill:none;stroke:#ffffff;stroke-width:15px;stroke-opacity:0"
         id="rect369" />
      <rect
         x="-6"
         y="-6"
         width="87"
         height="87"
         class="djs-outline"
         style="fill:none"
         id="rect371" />
    </g>
  </g>
  <g
     class="djs-group"
     id="g395"
     transform="translate(1.5,-210.00116)">
    <g
       class="djs-element djs-shape"
       data-element-id="shape_8773"
       style="display:block"
       transform="translate(242,322)"
       id="g393">
      <g
         class="djs-visual"
         id="g387">
        <svg
           fill="#000000"
           viewBox="0 0 24 26"
           width="75"
           height="75"
           version="1.1"
           id="svg381">
          <path
             d="m 12,5.9 c 1.16,0 2.1,0.94 2.1,2.1 0,1.16 -0.94,2.1 -2.1,2.1 C 10.84,10.1 9.9,9.16 9.9,8 9.9,6.84 10.84,5.9 12,5.9 m 0,9 c 2.97,0 6.1,1.46 6.1,2.1 v 1.1 H 5.9 V 17 c 0,-0.64 3.13,-2.1 6.1,-2.1 M 12,4 C 9.79,4 8,5.79 8,8 c 0,2.21 1.79,4 4,4 2.21,0 4,-1.79 4,-4 0,-2.21 -1.79,-4 -4,-4 z m 0,9 c -2.67,0 -8,1.34 -8,4 v 3 h 16 v -3 c 0,-2.66 -5.33,-4 -8,-4 z"
             id="path377" />
          <path
             d="M 0,0 H 24 V 24 H 0 Z"
             fill="none"
             id="path379" />
        </svg>
        <text
           lineHeight="1.2"
           class="djs-label"
           style="font-weight:normal;font-size:12px;font-family:Helvetica, sans-serif;fill:#000000"
           id="text385"><tspan
             x="33.5"
             y="75"
             id="tspan383">A</tspan></text>
      </g>
      <rect
         class="djs-hit djs-hit-all"
         x="0"
         y="0"
         width="75"
         height="75"
         style="fill:none;stroke:#ffffff;stroke-width:15px;stroke-opacity:0"
         id="rect389" />
      <rect
         x="-6"
         y="-6"
         width="87"
         height="87"
         class="djs-outline"
         style="fill:none"
         id="rect391" />
    </g>
  </g>
  <g
     class="djs-group"
     id="g415"
     transform="translate(1.5,-210.00116)">
    <g
       class="djs-element djs-shape"
       data-element-id="shape_2381"
       style="display:block"
       transform="translate(242,172)"
       id="g413">
      <g
         class="djs-visual"
         id="g407">
        <svg
           fill="#000000"
           viewBox="0 0 24 26"
           width="75"
           height="75"
           version="1.1"
           id="svg401">
          <path
             d="m 12,5.9 c 1.16,0 2.1,0.94 2.1,2.1 0,1.16 -0.94,2.1 -2.1,2.1 C 10.84,10.1 9.9,9.16 9.9,8 9.9,6.84 10.84,5.9 12,5.9 m 0,9 c 2.97,0 6.1,1.46 6.1,2.1 v 1.1 H 5.9 V 17 c 0,-0.64 3.13,-2.1 6.1,-2.1 M 12,4 C 9.79,4 8,5.79 8,8 c 0,2.21 1.79,4 4,4 2.21,0 4,-1.79 4,-4 0,-2.21 -1.79,-4 -4,-4 z m 0,9 c -2.67,0 -8,1.34 -8,4 v 3 h 16 v -3 c 0,-2.66 -5.33,-4 -8,-4 z"
             id="path397" />
          <path
             d="M 0,0 H 24 V 24 H 0 Z"
             fill="none"
             id="path399" />
        </svg>
        <text
           lineHeight="1.2"
           class="djs-label"
           style="font-weight:normal;font-size:12px;font-family:Helvetica, sans-serif;fill:#000000"
           id="text405"><tspan
             x="33.5"
             y="75"
             id="tspan403">A</tspan></text>
      </g>
      <rect
         class="djs-hit djs-hit-all"
         x="0"
         y="0"
         width="75"
         height="75"
         style="fill:none;stroke:#ffffff;stroke-width:15px;stroke-opacity:0"
         id="rect409" />
      <rect
         x="-6"
         y="-6"
         width="87"
         height="87"
         class="djs-outline"
         style="fill:none"
         id="rect411" />
    </g>
  </g>
  <g
     class="djs-group"
     id="g435"
     transform="translate(1.5,-210.00116)">
    <g
       class="djs-element djs-shape"
       data-element-id="shape_1430"
       style="display:block"
       transform="translate(242,32)"
       id="g433">
      <g
         class="djs-visual"
         id="g427">
        <svg
           fill="#000000"
           viewBox="0 0 24 26"
           width="75"
           height="75"
           version="1.1"
           id="svg421">
          <path
             d="m 12,5.9 c 1.16,0 2.1,0.94 2.1,2.1 0,1.16 -0.94,2.1 -2.1,2.1 C 10.84,10.1 9.9,9.16 9.9,8 9.9,6.84 10.84,5.9 12,5.9 m 0,9 c 2.97,0 6.1,1.46 6.1,2.1 v 1.1 H 5.9 V 17 c 0,-0.64 3.13,-2.1 6.1,-2.1 M 12,4 C 9.79,4 8,5.79 8,8 c 0,2.21 1.79,4 4,4 2.21,0 4,-1.79 4,-4 0,-2.21 -1.79,-4 -4,-4 z m 0,9 c -2.67,0 -8,1.34 -8,4 v 3 h 16 v -3 c 0,-2.66 -5.33,-4 -8,-4 z"
             id="path417" />
          <path
             d="M 0,0 H 24 V 24 H 0 Z"
             fill="none"
             id="path419" />
        </svg>
        <text
           lineHeight="1.2"
           class="djs-label"
           style="font-weight:normal;font-size:12px;font-family:Helvetica, sans-serif;fill:#000000"
           id="text425"><tspan
             x="33.5"
             y="75"
             id="tspan423">A</tspan></text>
      </g>
      <rect
         class="djs-hit djs-hit-all"
         x="0"
         y="0"
         width="75"
         height="75"
         style="fill:none;stroke:#ffffff;stroke-width:15px;stroke-opacity:0"
         id="rect429" />
      <rect
         x="-6"
         y="-6"
         width="87"
         height="87"
         class="djs-outline"
         style="fill:none"
         id="rect431" />
    </g>
  </g>
  <g
     class="djs-group"
     id="g455"
     transform="translate(1.5,-210.00116)">
    <g
       class="djs-element djs-shape"
       data-element-id="shape_2938"
       style="display:block"
       transform="translate(242,-88)"
       id="g453">
      <g
         class="djs-visual"
         id="g447">
        <svg
           fill="#000000"
           viewBox="0 0 24 26"
           width="75"
           height="75"
           version="1.1"
           id="svg441">
          <path
             d="m 12,5.9 c 1.16,0 2.1,0.94 2.1,2.1 0,1.16 -0.94,2.1 -2.1,2.1 C 10.84,10.1 9.9,9.16 9.9,8 9.9,6.84 10.84,5.9 12,5.9 m 0,9 c 2.97,0 6.1,1.46 6.1,2.1 v 1.1 H 5.9 V 17 c 0,-0.64 3.13,-2.1 6.1,-2.1 M 12,4 C 9.79,4 8,5.79 8,8 c 0,2.21 1.79,4 4,4 2.21,0 4,-1.79 4,-4 0,-2.21 -1.79,-4 -4,-4 z m 0,9 c -2.67,0 -8,1.34 -8,4 v 3 h 16 v -3 c 0,-2.66 -5.33,-4 -8,-4 z"
             id="path437" />
          <path
             d="M 0,0 H 24 V 24 H 0 Z"
             fill="none"
             id="path439" />
        </svg>
        <text
           lineHeight="1.2"
           class="djs-label"
           style="font-weight:normal;font-size:12px;font-family:Helvetica, sans-serif;fill:#000000"
           id="text445"><tspan
             x="33.5"
             y="75"
             id="tspan443">A</tspan></text>
      </g>
      <rect
         class="djs-hit djs-hit-all"
         x="0"
         y="0"
         width="75"
         height="75"
         style="fill:none;stroke:#ffffff;stroke-width:15px;stroke-opacity:0"
         id="rect449" />
      <rect
         x="-6"
         y="-6"
         width="87"
         height="87"
         class="djs-outline"
         style="fill:none"
         id="rect451" />
    </g>
  </g>
  <g
     class="djs-group"
     id="g475"
     transform="translate(1.5,-210.00116)">
    <g
       class="djs-element djs-shape"
       data-element-id="shape_6568"
       style="display:block"
       transform="translate(632,172)"
       id="g473">
      <g
         class="djs-visual"
         id="g467">
        <svg
           fill="#000000"
           viewBox="0 0 24 26"
           width="75"
           height="75"
           version="1.1"
           id="svg461">
          <path
             d="m 12,5.9 c 1.16,0 2.1,0.94 2.1,2.1 0,1.16 -0.94,2.1 -2.1,2.1 C 10.84,10.1 9.9,9.16 9.9,8 9.9,6.84 10.84,5.9 12,5.9 m 0,9 c 2.97,0 6.1,1.46 6.1,2.1 v 1.1 H 5.9 V 17 c 0,-0.64 3.13,-2.1 6.1,-2.1 M 12,4 C 9.79,4 8,5.79 8,8 c 0,2.21 1.79,4 4,4 2.21,0 4,-1.79 4,-4 0,-2.21 -1.79,-4 -4,-4 z m 0,9 c -2.67,0 -8,1.34 -8,4 v 3 h 16 v -3 c 0,-2.66 -5.33,-4 -8,-4 z"
             id="path457" />
          <path
             d="M 0,0 H 24 V 24 H 0 Z"
             fill="none"
             id="path459" />
        </svg>
        <text
           lineHeight="1.2"
           class="djs-label"
           style="font-weight:normal;font-size:12px;font-family:Helvetica, sans-serif;fill:#000000"
           id="text465"><tspan
             x="33.492188"
             y="75"
             id="tspan463">B</tspan></text>
      </g>
      <rect
         class="djs-hit djs-hit-all"
         x="0"
         y="0"
         width="75"
         height="75"
         style="fill:none;stroke:#ffffff;stroke-width:15px;stroke-opacity:0"
         id="rect469" />
      <rect
         x="-6"
         y="-6"
         width="87"
         height="87"
         class="djs-outline"
         style="fill:none"
         id="rect471" />
    </g>
  </g>
  <g
     class="djs-group"
     id="g495"
     transform="translate(1.5,-210.00116)">
    <g
       class="djs-element djs-shape"
       data-element-id="shape_3013"
       style="display:block"
       transform="translate(632,292)"
       id="g493">
      <g
         class="djs-visual"
         id="g487">
        <svg
           fill="#000000"
           viewBox="0 0 24 26"
           width="75"
           height="75"
           version="1.1"
           id="svg481">
          <path
             d="m 12,5.9 c 1.16,0 2.1,0.94 2.1,2.1 0,1.16 -0.94,2.1 -2.1,2.1 C 10.84,10.1 9.9,9.16 9.9,8 9.9,6.84 10.84,5.9 12,5.9 m 0,9 c 2.97,0 6.1,1.46 6.1,2.1 v 1.1 H 5.9 V 17 c 0,-0.64 3.13,-2.1 6.1,-2.1 M 12,4 C 9.79,4 8,5.79 8,8 c 0,2.21 1.79,4 4,4 2.21,0 4,-1.79 4,-4 0,-2.21 -1.79,-4 -4,-4 z m 0,9 c -2.67,0 -8,1.34 -8,4 v 3 h 16 v -3 c 0,-2.66 -5.33,-4 -8,-4 z"
             id="path477" />
          <path
             d="M 0,0 H 24 V 24 H 0 Z"
             fill="none"
             id="path479" />
        </svg>
        <text
           lineHeight="1.2"
           class="djs-label"
           style="font-weight:normal;font-size:12px;font-family:Helvetica, sans-serif;fill:#000000"
           id="text485"><tspan
             x="33.492188"
             y="75"
             id="tspan483">B</tspan></text>
      </g>
      <rect
         class="djs-hit djs-hit-all"
         x="0"
         y="0"
         width="75"
         height="75"
         style="fill:none;stroke:#ffffff;stroke-width:15px;stroke-opacity:0"
         id="rect489" />
      <rect
         x="-6"
         y="-6"
         width="87"
         height="87"
         class="djs-outline"
         style="fill:none"
         id="rect491" />
    </g>
  </g>
  <g
     class="djs-group"
     id="g515"
     transform="translate(1.5,-210.00116)">
    <g
       class="djs-element djs-shape"
       data-element-id="shape_9941"
       style="display:block"
       transform="translate(632,382)"
       id="g513">
      <g
         class="djs-visual"
         id="g507">
        <svg
           fill="#000000"
           viewBox="0 0 24 26"
           width="75"
           height="75"
           version="1.1"
           id="svg501">
          <path
             d="m 12,5.9 c 1.16,0 2.1,0.94 2.1,2.1 0,1.16 -0.94,2.1 -2.1,2.1 C 10.84,10.1 9.9,9.16 9.9,8 9.9,6.84 10.84,5.9 12,5.9 m 0,9 c 2.97,0 6.1,1.46 6.1,2.1 v 1.1 H 5.9 V 17 c 0,-0.64 3.13,-2.1 6.1,-2.1 M 12,4 C 9.79,4 8,5.79 8,8 c 0,2.21 1.79,4 4,4 2.21,0 4,-1.79 4,-4 0,-2.21 -1.79,-4 -4,-4 z m 0,9 c -2.67,0 -8,1.34 -8,4 v 3 h 16 v -3 c 0,-2.66 -5.33,-4 -8,-4 z"
             id="path497" />
          <path
             d="M 0,0 H 24 V 24 H 0 Z"
             fill="none"
             id="path499" />
        </svg>
        <text
           lineHeight="1.2"
           class="djs-label"
           style="font-weight:normal;font-size:12px;font-family:Helvetica, sans-serif;fill:#000000"
           id="text505"><tspan
             x="33.164062"
             y="75"
             id="tspan503">C</tspan></text>
      </g>
      <rect
         class="djs-hit djs-hit-all"
         x="0"
         y="0"
         width="75"
         height="75"
         style="fill:none;stroke:#ffffff;stroke-width:15px;stroke-opacity:0"
         id="rect509" />
      <rect
         x="-6"
         y="-6"
         width="87"
         height="87"
         class="djs-outline"
         style="fill:none"
         id="rect511" />
    </g>
  </g>
  <g
     class="djs-group"
     id="g535"
     transform="translate(1.5,-210.00116)">
    <g
       class="djs-element djs-shape"
       data-element-id="shape_0586"
       style="display:block"
       transform="translate(632,467)"
       id="g533">
      <g
         class="djs-visual"
         id="g527">
        <svg
           fill="#000000"
           viewBox="0 0 24 26"
           width="75"
           height="75"
           version="1.1"
           id="svg521">
          <path
             d="m 12,5.9 c 1.16,0 2.1,0.94 2.1,2.1 0,1.16 -0.94,2.1 -2.1,2.1 C 10.84,10.1 9.9,9.16 9.9,8 9.9,6.84 10.84,5.9 12,5.9 m 0,9 c 2.97,0 6.1,1.46 6.1,2.1 v 1.1 H 5.9 V 17 c 0,-0.64 3.13,-2.1 6.1,-2.1 M 12,4 C 9.79,4 8,5.79 8,8 c 0,2.21 1.79,4 4,4 2.21,0 4,-1.79 4,-4 0,-2.21 -1.79,-4 -4,-4 z m 0,9 c -2.67,0 -8,1.34 -8,4 v 3 h 16 v -3 c 0,-2.66 -5.33,-4 -8,-4 z"
             id="path517" />
          <path
             d="M 0,0 H 24 V 24 H 0 Z"
             fill="none"
             id="path519" />
        </svg>
        <text
           lineHeight="1.2"
           class="djs-label"
           style="font-weight:normal;font-size:12px;font-family:Helvetica, sans-serif;fill:#000000"
           id="text525"><tspan
             x="33.492188"
             y="75"
             id="tspan523">B</tspan></text>
      </g>
      <rect
         class="djs-hit djs-hit-all"
         x="0"
         y="0"
         width="75"
         height="75"
         style="fill:none;stroke:#ffffff;stroke-width:15px;stroke-opacity:0"
         id="rect529" />
      <rect
         x="-6"
         y="-6"
         width="87"
         height="87"
         class="djs-outline"
         style="fill:none"
         id="rect531" />
    </g>
  </g>
</svg>
