<?xml version="1.0" encoding="UTF-8" standalone="no"?>
<svg
   xmlns:dc="http://purl.org/dc/elements/1.1/"
   xmlns:cc="http://creativecommons.org/ns#"
   xmlns:rdf="http://www.w3.org/1999/02/22-rdf-syntax-ns#"
   xmlns:svg="http://www.w3.org/2000/svg"
   xmlns="http://www.w3.org/2000/svg"
   xmlns:sodipodi="http://sodipodi.sourceforge.net/DTD/sodipodi-0.dtd"
   xmlns:inkscape="http://www.inkscape.org/namespaces/inkscape"
   inkscape:version="1.0 (4035a4f, 2020-05-01)"
   sodipodi:docname="buildingblocks-workobjects.svg"
   id="svg144"
   version="1.1"
   viewBox="176 68 270 130.34667"
   height="208"
   width="270">
  <metadata
     id="metadata150">
    <rdf:RDF>
      <cc:Work
         rdf:about="">
        <dc:format>image/svg+xml</dc:format>
        <dc:type
           rdf:resource="http://purl.org/dc/dcmitype/StillImage" />
        <dc:title></dc:title>
      </cc:Work>
    </rdf:RDF>
  </metadata>
  <defs
     id="defs148" />
  <sodipodi:namedview
     inkscape:current-layer="svg144"
     inkscape:window-maximized="0"
     inkscape:window-y="23"
     inkscape:window-x="0"
     inkscape:cy="70.173335"
     inkscape:cx="285"
     inkscape:zoom="0.72869039"
     fit-margin-bottom="0"
     fit-margin-right="0"
     fit-margin-left="0"
     fit-margin-top="0"
     showgrid="false"
     id="namedview146"
     inkscape:window-height="480"
     inkscape:window-width="728"
     inkscape:pageshadow="2"
     inkscape:pageopacity="0"
     guidetolerance="10"
     gridtolerance="10"
     objecttolerance="10"
     borderopacity="1"
     bordercolor="#666666"
     pagecolor="#ffffff" />
  <g
     transform="translate(1.5,-117.32667)"
     id="g42"
     class="djs-group">
    <g
       id="g40"
       transform="translate(182,154)"
       style="display:block"
       data-element-id="shape_4508"
       class="djs-element djs-shape">
      <g
         id="g34"
         class="djs-visual">
        <svg
           id="svg28"
           version="1.1"
           y="12.5"
           x="12.5"
           viewBox="0 0 24 26"
           height="48.75"
           width="48.75"
           fill="#000000">
          <path
             id="path24"
             d="M 0,0 H 24 V 24 H 0 Z"
             fill="none" />
          <path
             id="path26"
             d="m 8,16 h 8 v 2 H 8 Z m 0,-4 h 8 v 2 H 8 Z M 14,2 H 6 C 4.9,2 4,2.9 4,4 v 16 c 0,1.1 0.89,2 1.99,2 H 18 c 1.1,0 2,-0.9 2,-2 V 8 Z m 4,18 H 6 V 4 h 7 v 5 h 5 z" />
        </svg>
        <text
           id="text32"
           style="font-weight:normal;font-size:12px;font-family:Helvetica, sans-serif;fill:#000000"
           class="djs-label"
           lineHeight="1.2"><tspan
             id="tspan30"
             y="74.75"
             x="9.15625">showtimes</tspan></text>
      </g>
      <rect
         id="rect36"
         style="fill:none;stroke:#ffffff;stroke-width:15px;stroke-opacity:0"
         height="75"
         width="75"
         y="0"
         x="0"
         class="djs-hit djs-hit-all" />
      <rect
         id="rect38"
         style="fill:none"
         class="djs-outline"
         height="87"
         width="87"
         y="-6"
         x="-6" />
    </g>
  </g>
  <g
     transform="translate(1.5,-117.32667)"
     id="g62"
     class="djs-group">
    <g
       id="g60"
       transform="translate(272,154)"
       style="display:block"
       data-element-id="shape_5831"
       class="djs-element djs-shape">
      <g
         id="g54"
         class="djs-visual">
        <svg
           id="svg48"
           version="1.1"
           y="12.5"
           x="12.5"
           viewBox="0 0 24 28"
           height="48.75"
           width="48.75"
           fill="#000000">
          <path
             id="path44"
             d="M 0,0 H 24 V 24 H 0 Z"
             fill="none" />
          <path
             id="path46"
             d="M 19.5,3.5 18,2 16.5,3.5 15,2 13.5,3.5 12,2 10.5,3.5 9,2 7.5,3.5 6,2 4.5,3.5 3,2 V 22 L 4.5,20.5 6,22 7.5,20.5 9,22 10.5,20.5 12,22 13.5,20.5 15,22 16.5,20.5 18,22 19.5,20.5 21,22 V 2 Z M 19,19.09 H 5 V 4.91 H 19 Z M 6,15 h 12 v 2 H 6 Z m 0,-4 h 12 v 2 H 6 Z M 6,7 H 18 V 9 H 6 Z" />
        </svg>
        <text
           id="text52"
           style="font-weight:normal;font-size:12px;font-family:Helvetica, sans-serif;fill:#000000"
           class="djs-label"
           lineHeight="1.2"><tspan
             id="tspan50"
             y="74.75"
             x="5.8203125">movie ticket</tspan></text>
      </g>
      <rect
         id="rect56"
         style="fill:none;stroke:#ffffff;stroke-width:15px;stroke-opacity:0"
         height="75"
         width="75"
         y="0"
         x="0"
         class="djs-hit djs-hit-all" />
      <rect
         id="rect58"
         style="fill:none"
         class="djs-outline"
         height="87"
         width="87"
         y="-6"
         x="-6" />
    </g>
  </g>
  <g
     transform="translate(1.5,-117.32667)"
     id="g82"
     class="djs-group">
    <g
       id="g80"
       transform="translate(182,272)"
       style="display:block"
       data-element-id="shape_3847"
       class="djs-element djs-shape">
      <g
         id="g74"
         class="djs-visual">
        <svg
           id="svg68"
           version="1.1"
           y="12.5"
           x="12.5"
           viewBox="0 0 24 26"
           height="48.75"
           width="48.75"
           fill="#000000">
          <path
             id="path64"
             d="M 0,0 H 24 V 24 H 0 Z"
             fill="none" />
          <path
             id="path66"
             d="m 15.55,13 c 0.75,0 1.41,-0.41 1.75,-1.03 L 20.88,5.48 C 21.25,4.82 20.77,4 20.01,4 H 5.21 L 4.27,2 H 1 v 2 h 2 l 3.6,7.59 -1.35,2.44 C 4.52,15.37 5.48,17 7,17 H 19 V 15 H 7 L 8.1,13 Z M 6.16,6 h 12.15 l -2.76,5 H 8.53 Z M 7,18 c -1.1,0 -1.99,0.9 -1.99,2 0,1.1 0.89,2 1.99,2 1.1,0 2,-0.9 2,-2 0,-1.1 -0.9,-2 -2,-2 z m 10,0 c -1.1,0 -1.99,0.9 -1.99,2 0,1.1 0.89,2 1.99,2 1.1,0 2,-0.9 2,-2 0,-1.1 -0.9,-2 -2,-2 z" />
        </svg>
        <text
           id="text72"
           style="font-weight:normal;font-size:12px;font-family:Helvetica, sans-serif;fill:#000000"
           class="djs-label"
           lineHeight="1.2"><tspan
             id="tspan70"
             y="74.75"
             x="1.4765625">shopping cart</tspan></text>
      </g>
      <rect
         id="rect76"
         style="fill:none;stroke:#ffffff;stroke-width:15px;stroke-opacity:0"
         height="75"
         width="75"
         y="0"
         x="0"
         class="djs-hit djs-hit-all" />
      <rect
         id="rect78"
         style="fill:none"
         class="djs-outline"
         height="87"
         width="87"
         y="-6"
         x="-6" />
    </g>
  </g>
  <g
     transform="translate(1.5,-117.32667)"
     id="g102"
     class="djs-group">
    <g
       id="g100"
       transform="translate(272,272)"
       style="display:block"
       data-element-id="shape_9635"
       class="djs-element djs-shape">
      <g
         id="g94"
         class="djs-visual">
        <svg
           id="svg88"
           version="1.1"
           y="12.5"
           x="12.5"
           viewBox="0 0 24 26"
           height="48.75"
           width="48.75"
           fill="#000000">
          <path
             id="path84"
             d="M 0,0 H 24 V 24 H 0 Z"
             fill="none" />
          <path
             id="path86"
             d="M 15,18.5 C 12.49,18.5 10.32,17.08 9.24,15 H 15 V 13 H 8.58 C 8.53,12.67 8.5,12.34 8.5,12 8.5,11.66 8.53,11.33 8.58,11 H 15 V 9 H 9.24 C 10.32,6.92 12.5,5.5 15,5.5 c 1.61,0 3.09,0.59 4.23,1.57 L 21,5.3 C 19.41,3.87 17.3,3 15,3 11.08,3 7.76,5.51 6.52,9 H 3 v 2 H 6.06 C 6.02,11.33 6,11.66 6,12 c 0,0.34 0.02,0.67 0.06,1 H 3 v 2 h 3.52 c 1.24,3.49 4.56,6 8.48,6 2.31,0 4.41,-0.87 6,-2.3 L 19.22,16.93 C 18.09,17.91 16.62,18.5 15,18.5 Z" />
        </svg>
        <text
           id="text92"
           style="font-weight:normal;font-size:12px;font-family:Helvetica, sans-serif;fill:#000000"
           class="djs-label"
           lineHeight="1.2"><tspan
             id="tspan90"
             y="74.75"
             x="24.492188">price</tspan></text>
      </g>
      <rect
         id="rect96"
         style="fill:none;stroke:#ffffff;stroke-width:15px;stroke-opacity:0"
         height="75"
         width="75"
         y="0"
         x="0"
         class="djs-hit djs-hit-all" />
      <rect
         id="rect98"
         style="fill:none"
         class="djs-outline"
         height="87"
         width="87"
         y="-6"
         x="-6" />
    </g>
  </g>
  <g
     transform="translate(1.5,-117.32667)"
     id="g122"
     class="djs-group">
    <g
       id="g120"
       transform="translate(362,272)"
       style="display:block"
       data-element-id="shape_1715"
       class="djs-element djs-shape">
      <g
         id="g114"
         class="djs-visual">
        <svg
           id="svg108"
           version="1.1"
           y="12.5"
           x="12.5"
           width="48.75"
           viewBox="0 0 24 26"
           height="48.75"
           fill="#000000">
          <path
             id="path104"
             fill="none"
             d="M 0,0 H 24 V 24 H 0 Z" />
          <path
             id="path106"
             d="M 20,2 H 4 C 2.9,2 2,2.9 2,4 v 18 l 4,-4 h 14 c 1.1,0 2,-0.9 2,-2 V 4 C 22,2.9 21.1,2 20,2 Z m 0,14 H 6 L 4,18 V 4 h 16 z" />
        </svg>
        <text
           id="text112"
           style="font-weight:normal;font-size:12px;font-family:Helvetica, sans-serif;fill:#000000"
           class="djs-label"
           lineHeight="1.2"><tspan
             id="tspan110"
             y="74.75"
             x="24.492188">price</tspan></text>
      </g>
      <rect
         id="rect116"
         style="fill:none;stroke:#ffffff;stroke-width:15px;stroke-opacity:0"
         height="75"
         width="75"
         y="0"
         x="0"
         class="djs-hit djs-hit-all" />
      <rect
         id="rect118"
         style="fill:none"
         class="djs-outline"
         height="87"
         width="87"
         y="-6"
         x="-6" />
    </g>
  </g>
  <g
     transform="translate(1.5,-117.32667)"
     id="g142"
     class="djs-group">
    <g
       id="g140"
       transform="translate(362,154)"
       style="display:block"
       data-element-id="shape_1963"
       class="djs-element djs-shape hover">
      <g
         id="g134"
         class="djs-visual">
        <svg
           id="svg128"
           version="1.1"
           y="12.5"
           x="12.5"
           height="48.75"
           width="48.75"
           viewBox="0 0 24 26"
           fill="#000000">
          <path
             id="path124"
             d="M 0,0 H 24 V 24 H 0 Z"
             fill="none" />
          <path
             id="path126"
             d="m 12,1.95 c -5.52,0 -10,4.48 -10,10 0,5.52 4.48,10 10,10 h 5 v -2 h -5 c -4.34,0 -8,-3.66 -8,-8 0,-4.34 3.66,-8 8,-8 4.34,0 8,3.66 8,8 v 1.43 c 0,0.79 -0.71,1.57 -1.5,1.57 -0.79,0 -1.5,-0.78 -1.5,-1.57 v -1.43 c 0,-2.76 -2.24,-5 -5,-5 -2.76,0 -5,2.24 -5,5 0,2.76 2.24,5 5,5 1.38,0 2.64,-0.56 3.54,-1.47 0.65,0.89 1.77,1.47 2.96,1.47 1.97,0 3.5,-1.6 3.5,-3.57 v -1.43 c 0,-5.52 -4.48,-10 -10,-10 z m 0,13 c -1.66,0 -3,-1.34 -3,-3 0,-1.66 1.34,-3 3,-3 1.66,0 3,1.34 3,3 0,1.66 -1.34,3 -3,3 z"
             fill-opacity="0.9" />
        </svg>
        <text
           id="text132"
           style="font-weight:normal;font-size:12px;font-family:Helvetica, sans-serif;fill:#000000"
           class="djs-label"
           lineHeight="1.2"><tspan
             id="tspan130"
             y="74.75"
             x="5.8203125">movie ticket</tspan></text>
      </g>
      <rect
         id="rect136"
         style="fill:none;stroke:#ffffff;stroke-width:15px;stroke-opacity:0"
         height="75"
         width="75"
         y="0"
         x="0"
         class="djs-hit djs-hit-all" />
      <rect
         id="rect138"
         style="fill:none"
         class="djs-outline"
         height="87"
         width="87"
         y="-6"
         x="-6" />
    </g>
  </g>
</svg>
